<svg xmlns="http://www.w3.org/2000/svg" xmlns:xlink="http://www.w3.org/1999/xlink" width="1012" height="47" viewBox="0 0 1012 47">
  <defs>
    <clipPath id="clip-curvinha-vermelha">
      <rect width="1012" height="47"/>
    </clipPath>
  </defs>
  <g id="curvinha-vermelha" clip-path="url(#clip-curvinha-vermelha)">
    <rect width="1012" height="47" fill="#fff"/>
    <path id="Caminho_217" data-name="Caminho 217" d="M960.2,473.092c-1.487,5.536-3.8,18.1-11.747,16.192-4.457-1.071-7.438-10.9-9.867-15.178a18.891,18.891,0,0,0-12.053-9.024c-16.342-3.926-23.341,12.777-26.393,25.479h0c-1.487,5.535-3.8,18.1-11.747,16.191-4.457-1.071-7.438-10.9-9.867-15.177a18.893,18.893,0,0,0-12.053-9.024c-16.342-3.927-23.341,12.777-26.393,25.479l.019,0c-1.487,5.536-3.8,18.1-11.747,16.192-4.457-1.071-7.438-10.9-9.867-15.178a18.894,18.894,0,0,0-12.053-9.024c-16.342-3.926-23.341,12.778-26.392,25.48h0c-1.487,5.536-3.8,18.1-11.747,16.192-4.457-1.071-7.438-10.9-9.867-15.178a18.888,18.888,0,0,0-12.053-9.024c-16.342-3.926-23.341,12.777-26.392,25.479l.018.005c-1.487,5.535-3.8,18.1-11.747,16.191-4.457-1.071-7.438-10.9-9.867-15.177a18.893,18.893,0,0,0-12.053-9.025c-16.342-3.926-23.341,12.778-26.392,25.48h0c-1.487,5.536-3.8,18.1-11.747,16.192-4.457-1.071-7.438-10.9-9.867-15.178a18.892,18.892,0,0,0-12.053-9.024c-16.342-3.926-23.341,12.778-26.392,25.479l.018.005c-1.487,5.535-3.8,18.1-11.747,16.191-4.457-1.07-7.438-10.9-9.867-15.177a18.888,18.888,0,0,0-12.053-9.024c-16.342-3.926-23.341,12.777-26.392,25.479h0c-1.487,5.535-3.8,18.1-11.747,16.191-4.457-1.071-7.438-10.9-9.867-15.177a18.893,18.893,0,0,0-12.053-9.025c-16.342-3.926-23.341,12.778-26.392,25.48h0c-1.487,5.535-3.8,18.1-11.747,16.191-4.457-1.07-7.438-10.9-9.867-15.177a18.893,18.893,0,0,0-12.053-9.024c-16.342-3.926-23.341,12.777-26.393,25.479h0c-1.487,5.535-3.8,18.1-11.747,16.191-4.457-1.071-7.438-10.9-9.867-15.177a18.893,18.893,0,0,0-12.053-9.024c-16.342-3.927-23.341,12.777-26.393,25.479l.019,0c-1.487,5.536-3.8,18.1-11.747,16.192-4.457-1.071-7.438-10.9-9.867-15.178a18.894,18.894,0,0,0-12.053-9.024c-16.342-3.926-23.341,12.777-26.393,25.479h0c-1.487,5.535-3.8,18.1-11.747,16.191-4.457-1.07-7.438-10.9-9.867-15.177a18.891,18.891,0,0,0-12.053-9.024c-16.342-3.926-23.341,12.777-26.392,25.479l.018.005c-1.487,5.535-3.8,18.1-11.747,16.191-4.457-1.071-7.438-10.9-9.867-15.177a18.893,18.893,0,0,0-12.053-9.025c-16.342-3.926-23.341,12.778-26.392,25.48h0c-1.487,5.536-3.8,18.1-11.747,16.192-4.457-1.071-7.438-10.9-9.867-15.178a18.892,18.892,0,0,0-12.053-9.024c-16.342-3.926-23.341,12.777-26.392,25.479l.018.005c-1.487,5.535-3.8,18.1-11.747,16.191-4.457-1.071-7.438-10.9-9.867-15.177a18.888,18.888,0,0,0-12.053-9.024c-16.342-3.927-23.341,12.777-26.392,25.479h0c-1.487,5.535-3.8,18.1-11.747,16.191-4.457-1.071-7.438-10.9-9.867-15.178a18.9,18.9,0,0,0-12.053-9.024C9.424,723.223,2.425,739.927-.626,752.629L11.333,755.5c1.469-5.461,3.576-18.154,11.747-16.191,4.085.981,6.187,7.929,7.943,11.415,3.394,6.472,6.7,11.037,13.977,12.786,16.193,3.891,23.358-12.851,26.392-25.479h0c1.469-5.461,3.576-18.154,11.747-16.191,4.085.982,6.187,7.929,7.943,11.415,3.394,6.473,6.7,11.038,13.977,12.786,16.193,3.891,23.358-12.851,26.392-25.479l-.018,0c1.469-5.461,3.576-18.155,11.747-16.192,4.085.982,6.187,7.93,7.943,11.416,3.394,6.472,6.7,11.037,13.977,12.786,16.193,3.89,23.358-12.852,26.392-25.479h0c1.469-5.461,3.576-18.154,11.747-16.191,4.085.981,6.187,7.929,7.943,11.415,3.394,6.472,6.7,11.037,13.977,12.786,16.193,3.891,23.358-12.851,26.392-25.479l-.018-.005c1.469-5.461,3.576-18.154,11.747-16.191,4.085.982,6.187,7.929,7.942,11.415,3.4,6.473,6.7,11.038,13.978,12.787,16.193,3.89,23.358-12.852,26.392-25.48h0c1.469-5.461,3.576-18.155,11.747-16.192,4.085.982,6.187,7.93,7.942,11.416,3.4,6.472,6.7,11.037,13.978,12.786,16.193,3.891,23.358-12.852,26.392-25.479l-.018-.005c1.469-5.461,3.576-18.154,11.747-16.191,4.085.981,6.187,7.929,7.942,11.415,3.395,6.473,6.7,11.037,13.978,12.786,16.193,3.891,23.358-12.851,26.392-25.479h0c1.469-5.461,3.576-18.154,11.747-16.191,4.085.982,6.187,7.929,7.942,11.415,3.4,6.473,6.7,11.038,13.978,12.787,16.193,3.89,23.358-12.852,26.392-25.48h0c1.469-5.461,3.576-18.154,11.747-16.191,4.085.981,6.187,7.929,7.943,11.415,3.394,6.472,6.7,11.037,13.977,12.786,16.193,3.891,23.358-12.851,26.392-25.479h0c1.469-5.461,3.576-18.154,11.747-16.191,4.085.982,6.187,7.929,7.943,11.415,3.394,6.473,6.7,11.038,13.977,12.787,16.193,3.89,23.358-12.852,26.392-25.48l-.018,0c1.469-5.461,3.576-18.155,11.747-16.191,4.085.981,6.187,7.929,7.943,11.415,3.394,6.472,6.7,11.037,13.977,12.786,16.193,3.891,23.358-12.852,26.392-25.479h0c1.469-5.461,3.576-18.154,11.747-16.191,4.085.981,6.187,7.929,7.943,11.415,3.394,6.472,6.7,11.037,13.977,12.786,16.193,3.891,23.358-12.851,26.392-25.479l-.018,0c1.469-5.462,3.576-18.155,11.747-16.192,4.085.982,6.187,7.93,7.943,11.415,3.394,6.473,6.7,11.038,13.977,12.787,16.193,3.89,23.358-12.852,26.392-25.48h0c1.469-5.461,3.576-18.155,11.747-16.191,4.085.981,6.187,7.929,7.943,11.415,3.394,6.472,6.7,11.037,13.977,12.786,16.193,3.891,23.358-12.852,26.392-25.479l-.018-.005c1.469-5.461,3.576-18.154,11.747-16.191,4.085.982,6.187,7.929,7.942,11.415,3.4,6.473,6.7,11.037,13.978,12.786,16.193,3.891,23.358-12.851,26.392-25.479h0c1.469-5.461,3.576-18.155,11.747-16.192,4.085.982,6.187,7.93,7.942,11.415,3.4,6.473,6.7,11.038,13.978,12.787,16.193,3.89,23.358-12.852,26.392-25.48Z" transform="translate(208.212 -701.065) rotate(16)" fill="#d90f0f"/>
  </g>
</svg>
