<svg xmlns="http://www.w3.org/2000/svg" width="74" height="71" viewBox="0 0 74 71">
  <g id="Polígono_8" data-name="Polígono 8" fill="none">
    <path d="M46.914,0,44.4,23.2,64.086,9.512,49.817,28.4,74,25.988,51.8,35.5,74,45.012,49.817,42.6,64.086,61.488,44.4,47.8,46.914,71,37,49.7,27.086,71,29.6,47.8,9.914,61.488,24.183,42.6,0,45.012,22.2,35.5,0,25.988,24.183,28.4,9.914,9.512,29.6,23.2,27.086,0,37,21.3Z" stroke="none"/>
    <path d="M 45.26836013793945 5.905593872070312 L 37 23.66978454589844 L 28.73163223266602 5.905601501464844 L 30.83055877685547 25.27626419067383 L 14.49327087402344 13.91475677490234 L 26.35929870605469 29.62207412719727 L 6.36663818359375 27.62784576416016 L 24.73905944824219 35.50000381469727 L 6.36663818359375 43.37218856811523 L 26.35931015014648 41.37794494628906 L 14.49329376220703 57.08526229858398 L 30.83057022094727 45.7237434387207 L 28.73165130615234 65.09439849853516 L 37 47.33022308349609 L 45.26836013793945 65.09440612792969 L 43.16944122314453 45.7237434387207 L 59.50671768188477 57.08525466918945 L 47.64070129394531 41.37794494628906 L 67.63336944580078 43.3721809387207 L 49.26094055175781 35.50000381469727 L 67.63336944580078 27.62782669067383 L 47.64070129394531 29.62206268310547 L 59.50672149658203 13.91473770141602 L 43.16944122314453 25.27625274658203 L 45.26836013793945 5.905593872070312 M 46.91411972045898 -7.62939453125e-06 L 44.40000152587891 23.20243453979492 L 64.08587646484375 9.512195587158203 L 49.81718063354492 28.40000534057617 L 74 25.9878044128418 L 51.79999923706055 35.50000381469727 L 74 45.01220321655273 L 49.81718063354492 42.60000610351562 L 64.08587646484375 61.4878044128418 L 44.40000152587891 47.79756164550781 L 46.91411972045898 71 L 37 49.70000457763672 L 27.08589172363281 71 L 29.60000991821289 47.79756164550781 L 9.914131164550781 61.48781585693359 L 24.18283081054688 42.60000610351562 L 7.62939453125e-06 45.01221466064453 L 22.20000076293945 35.50000381469727 L 0 25.98782348632812 L 24.18281936645508 28.4000129699707 L 9.914108276367188 9.512214660644531 L 29.59999847412109 23.20244216918945 L 27.08586883544922 7.62939453125e-06 L 37 21.30000305175781 L 46.91411972045898 -7.62939453125e-06 Z" stroke="none" fill="#652cb3"/>
  </g>
</svg>
