<svg id="Grupo_359" data-name="Grupo 359" xmlns="http://www.w3.org/2000/svg" width="52.931" height="54.055" viewBox="0 0 52.931 54.055">
  <path id="Polígono_18" data-name="Polígono 18" d="M25.593,0l5.119,21.612,20.474,5.4-20.474,5.4L25.593,54.03,20.474,32.418,0,27.015l20.474-5.4Z" transform="translate(0 0.025)" fill="#2a2929"/>
  <path id="Polígono_17" data-name="Polígono 17" d="M25.593,0l5.119,21.328,20.474,5.332L30.712,31.991,25.593,53.319,20.474,31.991,0,26.659l20.474-5.332Z" transform="translate(1.422 0.025)" fill="#d90f0f"/>
  <path id="Polígono_17_-_Contorno" data-name="Polígono 17 - Contorno" d="M25.9,2.453,21.2,21.814,2.29,26.685,21.2,31.556l4.7,19.361,4.7-19.361L49.5,26.685,30.594,21.814,25.9,2.453M25.9,0l5.179,21.348,20.717,5.337L31.076,32.022,25.9,53.369,20.717,32.022,0,26.685l20.717-5.337Z" transform="translate(1.138 0)" fill="#2a2929"/>
</svg>
