<svg id="Grupo_360" data-name="Grupo 360" xmlns="http://www.w3.org/2000/svg" width="32.948" height="31.475" viewBox="0 0 32.948 31.475">
  <path id="Polígono_18" data-name="Polígono 18" d="M15.518,0l3.1,12.265,12.414,3.066L18.622,18.4l-3.1,12.265L12.414,18.4,0,15.331l12.414-3.066Z" transform="translate(0 0.813)" fill="#2a2929"/>
  <path id="Polígono_17" data-name="Polígono 17" d="M15.518,0l3.1,12.083L31.036,15.1,18.622,18.124l-3.1,12.083-3.1-12.083L0,15.1l12.414-3.021Z" transform="translate(1.705 0.016)" fill="#d90f0f"/>
  <path id="Polígono_17_-_Contorno" data-name="Polígono 17 - Contorno" d="M15.712,1.39l-2.85,10.97L1.389,15.12l11.473,2.76,2.85,10.97,2.85-10.97,11.473-2.76L18.562,12.36,15.712,1.39m0-1.39,3.142,12.1,12.57,3.024-12.57,3.024-3.142,12.1-3.142-12.1L0,15.12,12.57,12.1Z" transform="translate(1.524 0)" fill="#2a2929"/>
</svg>
