<svg xmlns="http://www.w3.org/2000/svg" width="102.282" height="81.815" viewBox="0 0 102.282 81.815">
  <g id="Grupo_356" data-name="Grupo 356" transform="matrix(0.914, -0.407, 0.407, 0.914, -6439.121, -6718.656)">
    <ellipse id="Elipse_18" data-name="Elipse 18" cx="44.955" cy="24.763" rx="44.955" ry="24.763" transform="translate(3134.831 8790.233)" fill="#fff"/>
    <path id="Elipse_18_-_Contorno" data-name="Elipse 18 - Contorno" d="M44.955,1.524A75.728,75.728,0,0,0,27.8,3.43,54.418,54.418,0,0,0,13.9,8.588a29.024,29.024,0,0,0-9.161,7.465,14.194,14.194,0,0,0-3.218,8.711,14.194,14.194,0,0,0,3.218,8.711A29.024,29.024,0,0,0,13.9,40.939,54.418,54.418,0,0,0,27.8,46.1,75.728,75.728,0,0,0,44.955,48,75.728,75.728,0,0,0,62.108,46.1a54.418,54.418,0,0,0,13.9-5.158,29.024,29.024,0,0,0,9.161-7.465,14.194,14.194,0,0,0,3.218-8.711,14.194,14.194,0,0,0-3.218-8.711,29.024,29.024,0,0,0-9.161-7.465,54.418,54.418,0,0,0-13.9-5.158A75.728,75.728,0,0,0,44.955,1.524m0-1.524C69.784,0,89.911,11.087,89.911,24.763S69.784,49.527,44.955,49.527,0,38.44,0,24.763,20.127,0,44.955,0Z" transform="translate(3134.831 8790.233)" fill="#2a2929"/>
    <ellipse id="Elipse_19" data-name="Elipse 19" cx="18.211" cy="17.991" rx="18.211" ry="17.991" transform="translate(3161.576 8797.005)" fill="#2a2929"/>
  </g>
</svg>
