<?xml version="1.0" standalone="no"?>
<!DOCTYPE svg PUBLIC "-//W3C//DTD SVG 20010904//EN"
 "http://www.w3.org/TR/2001/REC-SVG-20010904/DTD/svg10.dtd">
<svg version="1.0" xmlns="http://www.w3.org/2000/svg"
 width="1390.000000pt" height="1390.000000pt" viewBox="0 0 1390.000000 1390.000000"
 preserveAspectRatio="xMidYMid meet">
<metadata>
Created by potrace 1.14, written by Peter Selinger 2001-2017
</metadata>
<g transform="translate(0.000000,1390.000000) scale(0.100000,-0.100000)"
fill="#000000" stroke="none">
<path d="M5659 12536 c-2 -2 -35 -6 -74 -9 -38 -4 -95 -11 -125 -17 -30 -6
-66 -13 -80 -15 -50 -9 -66 -13 -125 -30 -80 -22 -145 -43 -170 -54 -11 -5
-45 -19 -75 -31 -136 -55 -373 -193 -474 -277 -193 -159 -331 -308 -442 -478
-26 -38 -54 -82 -64 -96 -36 -51 -140 -276 -173 -374 -39 -115 -68 -222 -83
-314 -3 -18 -8 -43 -10 -55 -26 -129 -26 -487 1 -641 30 -168 76 -338 123
-450 70 -167 211 -410 297 -514 268 -321 556 -529 915 -659 134 -49 183 -62
348 -92 196 -37 465 -43 652 -14 57 9 219 43 263 56 23 6 47 12 52 14 6 1 55
18 110 39 470 176 865 523 1100 967 97 183 155 344 201 553 8 39 17 93 21 120
3 28 9 72 13 99 9 57 6 377 -4 451 -11 77 -31 184 -46 245 -57 234 -159 467
-293 665 -253 376 -613 655 -1041 804 -106 37 -281 79 -406 96 -49 7 -405 16
-411 11z"/>
<path d="M11048 7362 c-27 -3 -28 -5 -29 -65 -7 -515 -17 -934 -24 -1047 -2
-36 -7 -112 -10 -170 -4 -58 -8 -118 -9 -135 -2 -16 -7 -66 -10 -110 -4 -44
-9 -93 -11 -110 -3 -16 -9 -68 -15 -115 -18 -141 -20 -159 -51 -325 -18 -96
-41 -193 -95 -392 -60 -224 -245 -592 -352 -702 -9 -9 -31 -32 -47 -51 -86
-99 -265 -226 -373 -266 -26 -10 -51 -21 -57 -25 -9 -6 -145 -42 -210 -54 -57
-11 -280 -14 -338 -4 -219 36 -490 192 -762 439 -221 200 -512 524 -795 885
-52 66 -98 125 -102 130 -5 6 -27 35 -50 65 -24 30 -45 57 -48 60 -3 3 -34 43
-70 90 -64 84 -339 436 -371 475 -224 268 -330 375 -619 618 -14 12 -79 60
-145 107 -336 241 -699 420 -1084 534 -117 35 -302 80 -376 90 -33 5 -94 16
-115 21 -3 1 -36 5 -75 9 -38 5 -79 10 -90 12 -118 23 -689 22 -835 -1 -14 -2
-63 -9 -110 -15 -47 -6 -96 -13 -110 -16 -14 -2 -41 -7 -60 -9 -32 -5 -46 -8
-105 -21 -11 -3 -31 -7 -45 -10 -126 -25 -374 -104 -515 -164 -275 -116 -493
-245 -725 -429 -116 -91 -382 -356 -469 -466 -35 -44 -71 -89 -81 -101 -22
-26 -200 -284 -200 -289 0 -3 -15 -28 -33 -57 -113 -178 -257 -473 -369 -757
-74 -188 -211 -611 -233 -719 -2 -9 -17 -71 -34 -137 -25 -101 -39 -164 -66
-295 -21 -103 -50 -261 -60 -324 -4 -21 -8 -48 -11 -59 -2 -12 -6 -39 -9 -62
-3 -22 -10 -65 -15 -95 -5 -30 -12 -75 -15 -100 -3 -25 -7 -61 -10 -80 -3 -19
-7 -55 -10 -80 -3 -25 -7 -61 -10 -80 -3 -19 -7 -64 -10 -100 -4 -36 -8 -81
-10 -100 -2 -19 -6 -64 -10 -100 -3 -36 -7 -90 -10 -120 -10 -111 -18 -238
-31 -485 -2 -38 -6 -213 -10 -387 l-6 -317 1191 1 c897 0 1191 3 1192 11 0 7
2 125 4 262 5 369 16 884 20 930 1 22 6 92 9 155 4 63 8 131 11 150 8 80 18
177 20 210 1 19 5 49 8 65 4 17 9 53 12 80 3 28 7 59 9 70 2 11 8 45 12 75 4
30 8 57 9 60 1 3 7 32 13 65 105 515 265 866 507 1111 227 230 492 334 846
335 159 0 291 -35 460 -122 84 -43 253 -154 295 -193 6 -6 40 -36 75 -66 201
-173 486 -497 769 -874 36 -48 70 -92 75 -99 6 -7 52 -68 104 -137 88 -116
208 -268 221 -280 3 -3 32 -36 65 -75 33 -38 67 -76 75 -85 8 -9 58 -63 110
-121 98 -108 428 -440 515 -519 170 -154 377 -317 541 -427 101 -68 305 -188
379 -222 159 -75 211 -98 317 -137 172 -64 416 -130 543 -149 11 -1 67 -10
125 -18 93 -14 148 -20 305 -33 69 -5 436 -5 515 1 130 9 251 22 330 35 30 5
73 12 95 16 22 3 81 15 130 26 112 25 101 22 155 37 25 7 52 15 60 16 146 31
524 194 705 303 303 183 592 431 795 681 19 24 40 48 46 55 27 29 153 201 209
286 97 149 152 243 236 405 67 129 95 189 174 370 77 177 238 646 270 785 2 8
22 89 45 180 23 91 44 174 46 185 2 11 6 31 9 45 51 238 98 503 126 710 6 41
12 86 14 100 6 38 14 99 20 160 3 30 8 71 10 90 2 19 7 62 10 95 3 33 8 76 10
95 9 72 29 369 40 575 14 281 22 721 13 731 -6 5 -2303 11 -2350 6z"/>
</g>
</svg>
