<svg xmlns="http://www.w3.org/2000/svg" xmlns:xlink="http://www.w3.org/1999/xlink" width="269" height="89" viewBox="0 0 269 89">
  <defs>
    <linearGradient id="linear-gradient" x1="0.229" y1="0.141" x2="1.015" y2="1.324" gradientUnits="objectBoundingBox">
      <stop offset="0" stop-color="#7e6aec"/>
      <stop offset="1" stop-color="#2898c9"/>
    </linearGradient>
    <clipPath id="clip-aviso-privacidade">
      <rect width="269" height="89"/>
    </clipPath>
  </defs>
  <g id="aviso-privacidade" clip-path="url(#clip-aviso-privacidade)">
    <rect width="269" height="89" fill="#fff"/>
    <path id="Caminho_4258" data-name="Caminho 4258" d="M-78.5,0l-2.4-7.968H-92.088L-94.488,0h-7.392l11.04-33.5h9.024L-70.92,0Zm-7.92-26.88h-.24l-3.7,12.72h7.68ZM-62.136,0l-8.256-25.2h7.008l3.12,10.176,2.352,9.12h.384l2.352-9.12L-52.152-25.2h6.72L-53.688,0ZM-37.56-27.888a4.305,4.305,0,0,1-3.144-.984,3.412,3.412,0,0,1-.984-2.52v-1.056a3.412,3.412,0,0,1,.984-2.52,4.305,4.305,0,0,1,3.144-.984,4.305,4.305,0,0,1,3.144.984,3.412,3.412,0,0,1,.984,2.52v1.056a3.412,3.412,0,0,1-.984,2.52A4.305,4.305,0,0,1-37.56-27.888ZM-41.112-25.2h7.1V0h-7.1ZM-18.264.576A14.363,14.363,0,0,1-24.408-.6a14.2,14.2,0,0,1-4.464-3.336L-24.7-8.16A10.846,10.846,0,0,0-21.72-5.808a7.777,7.777,0,0,0,3.7.864A4.875,4.875,0,0,0-15.1-5.592a2.119,2.119,0,0,0,.816-1.752q0-1.776-2.544-2.112l-2.736-.336q-8.5-1.056-8.5-7.776a7.882,7.882,0,0,1,.7-3.336A7.445,7.445,0,0,1-25.392-23.5a9.163,9.163,0,0,1,3.072-1.68,12.788,12.788,0,0,1,4.056-.6,20.413,20.413,0,0,1,3.48.264,12.11,12.11,0,0,1,2.688.768A10.277,10.277,0,0,1-9.936-23.5,22.741,22.741,0,0,1-7.992-21.84l-4.08,4.176a9.325,9.325,0,0,0-2.712-1.9,7.332,7.332,0,0,0-3.1-.7,4.43,4.43,0,0,0-2.592.576,1.825,1.825,0,0,0-.768,1.536,2.11,2.11,0,0,0,.552,1.56,3.849,3.849,0,0,0,2.088.792l2.832.384q8.3,1.1,8.3,7.584a7.407,7.407,0,0,1-.768,3.36A7.9,7.9,0,0,1-10.416-1.8,10.393,10.393,0,0,1-13.824-.048,14.813,14.813,0,0,1-18.264.576Zm26.448,0A12.792,12.792,0,0,1,3.216-.336a9.912,9.912,0,0,1-3.7-2.64A12.033,12.033,0,0,1-2.808-7.152a17.24,17.24,0,0,1-.816-5.472A17.24,17.24,0,0,1-2.808-18.1,11.778,11.778,0,0,1-.48-22.248a10.037,10.037,0,0,1,3.7-2.616,12.792,12.792,0,0,1,4.968-.912,12.792,12.792,0,0,1,4.968.912,10.037,10.037,0,0,1,3.7,2.616A11.778,11.778,0,0,1,19.176-18.1a17.24,17.24,0,0,1,.816,5.472,17.24,17.24,0,0,1-.816,5.472,12.033,12.033,0,0,1-2.328,4.176,9.912,9.912,0,0,1-3.7,2.64A12.792,12.792,0,0,1,8.184.576Zm0-5.616a4.138,4.138,0,0,0,3.264-1.3,5.384,5.384,0,0,0,1.152-3.7v-5.136a5.384,5.384,0,0,0-1.152-3.7,4.138,4.138,0,0,0-3.264-1.3,4.138,4.138,0,0,0-3.264,1.3,5.384,5.384,0,0,0-1.152,3.7v5.136a5.384,5.384,0,0,0,1.152,3.7A4.138,4.138,0,0,0,8.184-5.04Zm44.784.816h-.24a6.282,6.282,0,0,1-.912,1.9A6.56,6.56,0,0,1,50.3-.792,7,7,0,0,1,48.288.216a7.611,7.611,0,0,1-2.328.36,8.372,8.372,0,0,1-7.248-3.384q-2.448-3.384-2.448-9.816t2.448-9.792a8.394,8.394,0,0,1,7.248-3.36A7.324,7.324,0,0,1,50.3-24.432a5.9,5.9,0,0,1,2.424,3.456h.24V-35.52h7.1V0h-7.1Zm-4.656-.96a5.429,5.429,0,0,0,3.336-.984,3.2,3.2,0,0,0,1.32-2.712v-7.44a3.2,3.2,0,0,0-1.32-2.712,5.429,5.429,0,0,0-3.336-.984A4.365,4.365,0,0,0,44.976-18.6a5.373,5.373,0,0,0-1.32,3.816v4.368A5.373,5.373,0,0,0,44.976-6.6,4.365,4.365,0,0,0,48.312-5.184ZM77.784.576A13.3,13.3,0,0,1,72.648-.36,10.6,10.6,0,0,1,68.832-3,11.122,11.122,0,0,1,66.48-7.152a17.722,17.722,0,0,1-.792-5.472,17.825,17.825,0,0,1,.768-5.4,11.48,11.48,0,0,1,2.28-4.152,10.107,10.107,0,0,1,3.72-2.664,12.811,12.811,0,0,1,5.04-.936,12.424,12.424,0,0,1,5.352,1.056A10.1,10.1,0,0,1,86.5-21.888a11.409,11.409,0,0,1,2.064,4.1,18.086,18.086,0,0,1,.648,4.872V-10.8H73.032v.381a5.554,5.554,0,0,0,1.344,3.927A5.5,5.5,0,0,0,78.6-5.04a6.636,6.636,0,0,0,3.6-.881,14.138,14.138,0,0,0,2.592-2.118l3.552,4.428a11.2,11.2,0,0,1-4.392,3.08A16.2,16.2,0,0,1,77.784.576Zm-.144-21.12a4.236,4.236,0,0,0-3.384,1.416,5.561,5.561,0,0,0-1.224,3.768v.384h8.832v-.432a6.171,6.171,0,0,0-1.032-3.72A3.686,3.686,0,0,0,77.64-20.544ZM-133.2,52V18.5h15.84a10.746,10.746,0,0,1,4.224.792,9.368,9.368,0,0,1,3.192,2.184,9.575,9.575,0,0,1,2.04,3.384,12.691,12.691,0,0,1,.72,4.344,12.635,12.635,0,0,1-.72,4.368,9.613,9.613,0,0,1-2.04,3.36,9.368,9.368,0,0,1-3.192,2.184,10.746,10.746,0,0,1-4.224.792H-125.9V52Zm7.3-18.432h7.68a3.705,3.705,0,0,0,2.568-.84,3.151,3.151,0,0,0,.936-2.472V28.144a3.151,3.151,0,0,0-.936-2.472,3.705,3.705,0,0,0-2.568-.84h-7.68ZM-102,52V26.8h7.1v5.472h.24a7.828,7.828,0,0,1,.672-2.04,6.225,6.225,0,0,1,1.272-1.752,5.955,5.955,0,0,1,1.9-1.224,6.76,6.76,0,0,1,2.592-.456h1.248v6.624h-1.776a10.118,10.118,0,0,0-4.632.816A3.124,3.124,0,0,0-94.9,37.264V52Zm23.52-27.888a4.305,4.305,0,0,1-3.144-.984,3.412,3.412,0,0,1-.984-2.52V19.552a3.412,3.412,0,0,1,.984-2.52,4.305,4.305,0,0,1,3.144-.984,4.305,4.305,0,0,1,3.144.984,3.412,3.412,0,0,1,.984,2.52v1.056a3.412,3.412,0,0,1-.984,2.52A4.305,4.305,0,0,1-78.48,24.112ZM-82.032,26.8h7.1V52h-7.1ZM-62.352,52l-8.256-25.2H-63.6l3.12,10.176,2.352,9.12h.384l2.352-9.12L-52.368,26.8h6.72L-53.9,52Zm39.216,0a4.469,4.469,0,0,1-3.192-1.2,5.518,5.518,0,0,1-1.608-3.216h-.288a5.826,5.826,0,0,1-2.544,3.72,8.75,8.75,0,0,1-4.848,1.272,7.877,7.877,0,0,1-5.808-2.01,7.167,7.167,0,0,1-2.016-5.311,6.617,6.617,0,0,1,2.9-5.909,14.062,14.062,0,0,1,7.9-1.938h3.984V35.824a4.211,4.211,0,0,0-.96-2.9,4.124,4.124,0,0,0-3.216-1.08,5.578,5.578,0,0,0-3.36.912,9.02,9.02,0,0,0-2.064,2.064l-4.224-3.765A11.037,11.037,0,0,1-38.616,27.5,13.159,13.159,0,0,1-32.3,26.224q5.376,0,8.064,2.352t2.688,6.864V46.48H-19.2V52Zm-9.84-4.368a5.824,5.824,0,0,0,3.048-.762,2.665,2.665,0,0,0,1.272-2.477V41.44h-3.456q-4.176,0-4.176,2.81v.715a2.357,2.357,0,0,0,.864,2.024A4.038,4.038,0,0,0-32.976,47.632ZM-3.7,52.576a12.81,12.81,0,0,1-5.04-.936,10.014,10.014,0,0,1-3.7-2.64,11.413,11.413,0,0,1-2.256-4.152,18.235,18.235,0,0,1-.768-5.472,18,18,0,0,1,.768-5.448,11.682,11.682,0,0,1,2.256-4.152,9.663,9.663,0,0,1,3.7-2.64,13.107,13.107,0,0,1,5.04-.912,11.228,11.228,0,0,1,6.408,1.728A9.46,9.46,0,0,1,6.384,32.8L.624,35.3A4.829,4.829,0,0,0-.768,32.848,4.068,4.068,0,0,0-3.7,31.84,3.886,3.886,0,0,0-6.96,33.256a6.046,6.046,0,0,0-1.1,3.816v4.7a5.942,5.942,0,0,0,1.1,3.792A3.915,3.915,0,0,0-3.7,46.96,4.342,4.342,0,0,0-.648,45.928a6.039,6.039,0,0,0,1.656-2.712l5.52,2.4A9.816,9.816,0,0,1,2.664,50.9,11.525,11.525,0,0,1-3.7,52.576ZM15.072,24.112a4.305,4.305,0,0,1-3.144-.984,3.412,3.412,0,0,1-.984-2.52V19.552a3.412,3.412,0,0,1,.984-2.52,4.305,4.305,0,0,1,3.144-.984,4.305,4.305,0,0,1,3.144.984,3.412,3.412,0,0,1,.984,2.52v1.056a3.412,3.412,0,0,1-.984,2.52A4.305,4.305,0,0,1,15.072,24.112ZM11.52,26.8h7.1V52h-7.1ZM41.28,47.776h-.24a6.282,6.282,0,0,1-.912,1.9,6.56,6.56,0,0,1-1.512,1.536A7,7,0,0,1,36.6,52.216a7.611,7.611,0,0,1-2.328.36,8.372,8.372,0,0,1-7.248-3.384q-2.448-3.384-2.448-9.816t2.448-9.792a8.394,8.394,0,0,1,7.248-3.36,7.324,7.324,0,0,1,4.344,1.344,5.9,5.9,0,0,1,2.424,3.456h.24V16.48h7.1V52h-7.1Zm-4.656-.96a5.429,5.429,0,0,0,3.336-.984,3.2,3.2,0,0,0,1.32-2.712V35.68a3.2,3.2,0,0,0-1.32-2.712,5.429,5.429,0,0,0-3.336-.984A4.365,4.365,0,0,0,33.288,33.4a5.373,5.373,0,0,0-1.32,3.816v4.368a5.373,5.373,0,0,0,1.32,3.816A4.365,4.365,0,0,0,36.624,46.816ZM74.208,52a4.469,4.469,0,0,1-3.192-1.2,5.518,5.518,0,0,1-1.608-3.216H69.12a5.826,5.826,0,0,1-2.544,3.72,8.75,8.75,0,0,1-4.848,1.272,7.877,7.877,0,0,1-5.808-2.01A7.167,7.167,0,0,1,53.9,45.255a6.617,6.617,0,0,1,2.9-5.909,14.062,14.062,0,0,1,7.9-1.938h3.984V35.824a4.211,4.211,0,0,0-.96-2.9,4.124,4.124,0,0,0-3.216-1.08,5.578,5.578,0,0,0-3.36.912,9.02,9.02,0,0,0-2.064,2.064l-4.224-3.765A11.037,11.037,0,0,1,58.728,27.5a13.159,13.159,0,0,1,6.312-1.279q5.376,0,8.064,2.352t2.688,6.864V46.48h2.352V52Zm-9.84-4.368a5.824,5.824,0,0,0,3.048-.762,2.665,2.665,0,0,0,1.272-2.477V41.44H65.232q-4.176,0-4.176,2.81v.715a2.357,2.357,0,0,0,.864,2.024A4.038,4.038,0,0,0,64.368,47.632Zm34.56.144h-.24a6.282,6.282,0,0,1-.912,1.9,6.56,6.56,0,0,1-1.512,1.536,7,7,0,0,1-2.016,1.008,7.611,7.611,0,0,1-2.328.36,8.372,8.372,0,0,1-7.248-3.384q-2.448-3.384-2.448-9.816t2.448-9.792a8.394,8.394,0,0,1,7.248-3.36,7.324,7.324,0,0,1,4.344,1.344,5.9,5.9,0,0,1,2.424,3.456h.24V16.48h7.1V52h-7.1Zm-4.656-.96a5.429,5.429,0,0,0,3.336-.984,3.2,3.2,0,0,0,1.32-2.712V35.68a3.2,3.2,0,0,0-1.32-2.712,5.429,5.429,0,0,0-3.336-.984A4.365,4.365,0,0,0,90.936,33.4a5.373,5.373,0,0,0-1.32,3.816v4.368a5.373,5.373,0,0,0,1.32,3.816A4.365,4.365,0,0,0,94.272,46.816Zm29.472,5.76a13.3,13.3,0,0,1-5.136-.936A10.6,10.6,0,0,1,114.792,49a11.122,11.122,0,0,1-2.352-4.152,17.722,17.722,0,0,1-.792-5.472,17.825,17.825,0,0,1,.768-5.4,11.48,11.48,0,0,1,2.28-4.152,10.107,10.107,0,0,1,3.72-2.664,12.811,12.811,0,0,1,5.04-.936,12.424,12.424,0,0,1,5.352,1.056,10.1,10.1,0,0,1,3.648,2.832,11.41,11.41,0,0,1,2.064,4.1,18.086,18.086,0,0,1,.648,4.872V41.2H118.992v.381a4.9,4.9,0,0,0,5.568,5.379,6.636,6.636,0,0,0,3.6-.881,14.139,14.139,0,0,0,2.592-2.118l3.552,4.428a11.2,11.2,0,0,1-4.392,3.08A16.2,16.2,0,0,1,123.744,52.576Zm-.144-21.12a4.236,4.236,0,0,0-3.384,1.416,5.561,5.561,0,0,0-1.224,3.768v.384h8.832v-.432a6.171,6.171,0,0,0-1.032-3.72A3.686,3.686,0,0,0,123.6,31.456Z" transform="translate(133.2 35.953)" fill="url(#linear-gradient)"/>
  </g>
</svg>
