<svg xmlns="http://www.w3.org/2000/svg" xmlns:xlink="http://www.w3.org/1999/xlink" width="384" height="89" viewBox="0 0 384 89">
  <defs>
    <linearGradient id="linear-gradient" x1="0.801" y1="-0.17" x2="0.343" y2="1" gradientUnits="objectBoundingBox">
      <stop offset="0" stop-color="#7e6aec"/>
      <stop offset="1" stop-color="#2898c9"/>
    </linearGradient>
    <clipPath id="clip-hora-de-proteger-seus-dados">
      <rect width="384" height="89"/>
    </clipPath>
  </defs>
  <g id="hora-de-proteger-seus-dados" clip-path="url(#clip-hora-de-proteger-seus-dados)">
    <rect width="384" height="89" fill="#fff"/>
    <path id="Caminho_2758" data-name="Caminho 2758" d="M-170.328-13.728H-183.1V0h-7.3V-33.5h7.3v13.3h12.768V-33.5h7.3V0h-7.3Zm25.1,14.3a12.792,12.792,0,0,1-4.968-.912,9.912,9.912,0,0,1-3.7-2.64,12.033,12.033,0,0,1-2.328-4.176,17.24,17.24,0,0,1-.816-5.472,17.24,17.24,0,0,1,.816-5.472,11.778,11.778,0,0,1,2.328-4.152,10.037,10.037,0,0,1,3.7-2.616,12.792,12.792,0,0,1,4.968-.912,12.792,12.792,0,0,1,4.968.912,10.037,10.037,0,0,1,3.7,2.616,11.777,11.777,0,0,1,2.328,4.152,17.241,17.241,0,0,1,.816,5.472,17.241,17.241,0,0,1-.816,5.472,12.033,12.033,0,0,1-2.328,4.176,9.912,9.912,0,0,1-3.7,2.64A12.792,12.792,0,0,1-145.224.576Zm0-5.616a4.138,4.138,0,0,0,3.264-1.3,5.384,5.384,0,0,0,1.152-3.7v-5.136a5.384,5.384,0,0,0-1.152-3.7,4.138,4.138,0,0,0-3.264-1.3,4.138,4.138,0,0,0-3.264,1.3,5.384,5.384,0,0,0-1.152,3.7v5.136a5.384,5.384,0,0,0,1.152,3.7A4.138,4.138,0,0,0-145.224-5.04ZM-127.8,0V-25.2h7.1v5.472h.24a7.828,7.828,0,0,1,.672-2.04,6.225,6.225,0,0,1,1.272-1.752,5.955,5.955,0,0,1,1.9-1.224,6.76,6.76,0,0,1,2.592-.456h1.248v6.624h-1.776a10.118,10.118,0,0,0-4.632.816,3.124,3.124,0,0,0-1.512,3.024V0Zm37.92,0a4.469,4.469,0,0,1-3.192-1.2A5.518,5.518,0,0,1-94.68-4.416h-.288A5.826,5.826,0,0,1-97.512-.7,8.75,8.75,0,0,1-102.36.576a7.877,7.877,0,0,1-5.808-2.01,7.167,7.167,0,0,1-2.016-5.311,6.617,6.617,0,0,1,2.9-5.909,14.062,14.062,0,0,1,7.9-1.938H-95.4v-1.584a4.211,4.211,0,0,0-.96-2.9,4.124,4.124,0,0,0-3.216-1.08,5.578,5.578,0,0,0-3.36.912A9.02,9.02,0,0,0-105-17.184l-4.224-3.765A11.037,11.037,0,0,1-105.36-24.5a13.159,13.159,0,0,1,6.312-1.279q5.376,0,8.064,2.352T-88.3-16.56V-5.52h2.352V0Zm-9.84-4.368a5.824,5.824,0,0,0,3.048-.762A2.665,2.665,0,0,0-95.4-7.607V-10.56h-3.456q-4.176,0-4.176,2.81v.715a2.357,2.357,0,0,0,.864,2.024A4.038,4.038,0,0,0-99.72-4.368Zm46.464.144h-.24a6.282,6.282,0,0,1-.912,1.9A6.56,6.56,0,0,1-55.92-.792,7,7,0,0,1-57.936.216a7.611,7.611,0,0,1-2.328.36,8.372,8.372,0,0,1-7.248-3.384q-2.448-3.384-2.448-9.816t2.448-9.792a8.394,8.394,0,0,1,7.248-3.36,7.324,7.324,0,0,1,4.344,1.344A5.9,5.9,0,0,1-53.5-20.976h.24V-35.52h7.1V0h-7.1Zm-4.656-.96a5.429,5.429,0,0,0,3.336-.984,3.2,3.2,0,0,0,1.32-2.712v-7.44a3.2,3.2,0,0,0-1.32-2.712,5.429,5.429,0,0,0-3.336-.984A4.365,4.365,0,0,0-61.248-18.6a5.373,5.373,0,0,0-1.32,3.816v4.368A5.373,5.373,0,0,0-61.248-6.6,4.365,4.365,0,0,0-57.912-5.184ZM-28.44.576A13.3,13.3,0,0,1-33.576-.36,10.6,10.6,0,0,1-37.392-3a11.122,11.122,0,0,1-2.352-4.152,17.722,17.722,0,0,1-.792-5.472,17.825,17.825,0,0,1,.768-5.4,11.48,11.48,0,0,1,2.28-4.152,10.107,10.107,0,0,1,3.72-2.664,12.81,12.81,0,0,1,5.04-.936,12.424,12.424,0,0,1,5.352,1.056,10.1,10.1,0,0,1,3.648,2.832,11.409,11.409,0,0,1,2.064,4.1,18.086,18.086,0,0,1,.648,4.872V-10.8H-33.192v.381a5.554,5.554,0,0,0,1.344,3.927A5.5,5.5,0,0,0-27.624-5.04a6.636,6.636,0,0,0,3.6-.881,14.139,14.139,0,0,0,2.592-2.118l3.552,4.428a11.2,11.2,0,0,1-4.392,3.08A16.2,16.2,0,0,1-28.44.576Zm-.144-21.12a4.236,4.236,0,0,0-3.384,1.416,5.561,5.561,0,0,0-1.224,3.768v.384h8.832v-.432a6.171,6.171,0,0,0-1.032-3.72A3.686,3.686,0,0,0-28.584-20.544ZM.5-25.2h7.1v4.224h.24a5.9,5.9,0,0,1,2.424-3.456,7.324,7.324,0,0,1,4.344-1.344,8.394,8.394,0,0,1,7.248,3.36q2.448,3.36,2.448,9.792T21.864-2.808A8.372,8.372,0,0,1,14.616.576a7.541,7.541,0,0,1-2.352-.36A7.073,7.073,0,0,1,10.272-.792,6.56,6.56,0,0,1,8.76-2.328a6.282,6.282,0,0,1-.912-1.9h-.24V9.6H.5ZM12.264-5.184A4.365,4.365,0,0,0,15.6-6.6a5.373,5.373,0,0,0,1.32-3.816v-4.368A5.373,5.373,0,0,0,15.6-18.6a4.365,4.365,0,0,0-3.336-1.416,5.429,5.429,0,0,0-3.336.984,3.2,3.2,0,0,0-1.32,2.712v7.44a3.2,3.2,0,0,0,1.32,2.712A5.429,5.429,0,0,0,12.264-5.184ZM30.264,0V-25.2h7.1v5.472h.24a7.827,7.827,0,0,1,.672-2.04,6.225,6.225,0,0,1,1.272-1.752,5.955,5.955,0,0,1,1.9-1.224A6.76,6.76,0,0,1,44.04-25.2h1.248v6.624H43.512a10.118,10.118,0,0,0-4.632.816,3.124,3.124,0,0,0-1.512,3.024V0ZM60.216.576a12.792,12.792,0,0,1-4.968-.912,9.912,9.912,0,0,1-3.7-2.64,12.033,12.033,0,0,1-2.328-4.176,17.24,17.24,0,0,1-.816-5.472,17.24,17.24,0,0,1,.816-5.472,11.778,11.778,0,0,1,2.328-4.152,10.037,10.037,0,0,1,3.7-2.616,12.792,12.792,0,0,1,4.968-.912,12.792,12.792,0,0,1,4.968.912,10.037,10.037,0,0,1,3.7,2.616A11.778,11.778,0,0,1,71.208-18.1a17.24,17.24,0,0,1,.816,5.472,17.24,17.24,0,0,1-.816,5.472A12.033,12.033,0,0,1,68.88-2.976a9.912,9.912,0,0,1-3.7,2.64A12.792,12.792,0,0,1,60.216.576Zm0-5.616a4.138,4.138,0,0,0,3.264-1.3,5.384,5.384,0,0,0,1.152-3.7v-5.136a5.384,5.384,0,0,0-1.152-3.7,4.138,4.138,0,0,0-3.264-1.3,4.138,4.138,0,0,0-3.264,1.3,5.384,5.384,0,0,0-1.152,3.7v5.136a5.384,5.384,0,0,0,1.152,3.7A4.138,4.138,0,0,0,60.216-5.04ZM86.184,0a7.642,7.642,0,0,1-5.592-1.872,7.358,7.358,0,0,1-1.9-5.472V-19.68H75.144V-25.2H76.92a2.343,2.343,0,0,0,1.968-.7,3.245,3.245,0,0,0,.528-1.992v-4.128H85.8V-25.2h4.992v5.52H85.8V-5.52h4.608V0Zm20.448.576A13.3,13.3,0,0,1,101.5-.36,10.6,10.6,0,0,1,97.68-3a11.122,11.122,0,0,1-2.352-4.152,17.722,17.722,0,0,1-.792-5.472,17.825,17.825,0,0,1,.768-5.4,11.48,11.48,0,0,1,2.28-4.152,10.107,10.107,0,0,1,3.72-2.664,12.811,12.811,0,0,1,5.04-.936A12.424,12.424,0,0,1,111.7-24.72a10.1,10.1,0,0,1,3.648,2.832,11.41,11.41,0,0,1,2.064,4.1,18.086,18.086,0,0,1,.648,4.872V-10.8H101.88v.381a5.554,5.554,0,0,0,1.344,3.927,5.5,5.5,0,0,0,4.224,1.452,6.636,6.636,0,0,0,3.6-.881,14.138,14.138,0,0,0,2.592-2.118l3.552,4.428A11.2,11.2,0,0,1,112.8-.531,16.2,16.2,0,0,1,106.632.576Zm-.144-21.12a4.236,4.236,0,0,0-3.384,1.416,5.561,5.561,0,0,0-1.224,3.768v.384h8.832v-.432a6.171,6.171,0,0,0-1.032-3.72A3.686,3.686,0,0,0,106.488-20.544ZM147,1.824a8.528,8.528,0,0,1-.7,3.552,6.327,6.327,0,0,1-2.28,2.616,11.748,11.748,0,0,1-4.2,1.632,31.906,31.906,0,0,1-6.456.552,32.074,32.074,0,0,1-5.544-.408,12.928,12.928,0,0,1-3.7-1.152,5.065,5.065,0,0,1-2.064-1.824,4.711,4.711,0,0,1-.648-2.472,4.378,4.378,0,0,1,1.248-3.312A5.941,5.941,0,0,1,126.12-.48v-.528a4.2,4.2,0,0,1-2.736-1.562,4.659,4.659,0,0,1-.912-2.86,3.6,3.6,0,0,1,.408-1.754,4.592,4.592,0,0,1,1.056-1.3,5.232,5.232,0,0,1,1.512-.889,11.906,11.906,0,0,1,1.728-.529v-.192a7.415,7.415,0,0,1-3.408-2.9,8.2,8.2,0,0,1-1.1-4.293,7.78,7.78,0,0,1,2.664-6.163q2.664-2.326,8.136-2.326a16.55,16.55,0,0,1,4.272.48v-.96a3.745,3.745,0,0,1,.984-2.9,4.05,4.05,0,0,1,2.808-.888h3.984v5.28h-5.568v.288a7.19,7.19,0,0,1,3.264,2.9,8.508,8.508,0,0,1,1.056,4.3,7.592,7.592,0,0,1-2.664,6.072q-2.664,2.28-8.136,2.28A17.611,17.611,0,0,1,129-9.456a2.277,2.277,0,0,0-1.1,2.016,1.647,1.647,0,0,0,.7,1.416,4.081,4.081,0,0,0,2.328.5h7.3q4.608,0,6.7,1.92A7,7,0,0,1,147,1.824Zm-6.672.96a1.893,1.893,0,0,0-.864-1.68A5.76,5.76,0,0,0,136.44.528H127.8a2.912,2.912,0,0,0-.7,1.08,3.458,3.458,0,0,0-.216,1.176,2.161,2.161,0,0,0,1.2,2.04,9.23,9.23,0,0,0,4.08.648h2.88a9.23,9.23,0,0,0,4.08-.648A2.161,2.161,0,0,0,140.328,2.784Zm-6.864-16.416a4.748,4.748,0,0,0,3.144-.882,3.171,3.171,0,0,0,1.032-2.551v-.573a3.171,3.171,0,0,0-1.032-2.551,4.748,4.748,0,0,0-3.144-.882,4.748,4.748,0,0,0-3.144.882,3.171,3.171,0,0,0-1.032,2.551v.573a3.171,3.171,0,0,0,1.032,2.551A4.748,4.748,0,0,0,133.464-13.632ZM160.968.576a13.3,13.3,0,0,1-5.136-.936A10.6,10.6,0,0,1,152.016-3a11.122,11.122,0,0,1-2.352-4.152,17.722,17.722,0,0,1-.792-5.472,17.825,17.825,0,0,1,.768-5.4,11.48,11.48,0,0,1,2.28-4.152,10.107,10.107,0,0,1,3.72-2.664,12.81,12.81,0,0,1,5.04-.936,12.424,12.424,0,0,1,5.352,1.056,10.1,10.1,0,0,1,3.648,2.832,11.41,11.41,0,0,1,2.064,4.1,18.086,18.086,0,0,1,.648,4.872V-10.8H156.216v.381a5.554,5.554,0,0,0,1.344,3.927,5.5,5.5,0,0,0,4.224,1.452,6.636,6.636,0,0,0,3.6-.881,14.139,14.139,0,0,0,2.592-2.118l3.552,4.428a11.2,11.2,0,0,1-4.392,3.08A16.2,16.2,0,0,1,160.968.576Zm-.144-21.12a4.236,4.236,0,0,0-3.384,1.416,5.561,5.561,0,0,0-1.224,3.768v.384h8.832v-.432a6.171,6.171,0,0,0-1.032-3.72A3.686,3.686,0,0,0,160.824-20.544ZM178.008,0V-25.2h7.1v5.472h.24a7.828,7.828,0,0,1,.672-2.04A6.225,6.225,0,0,1,187.3-23.52a5.955,5.955,0,0,1,1.9-1.224,6.76,6.76,0,0,1,2.592-.456h1.248v6.624h-1.776a10.118,10.118,0,0,0-4.632.816,3.124,3.124,0,0,0-1.512,3.024V0ZM-116.856,52.576A14.363,14.363,0,0,1-123,51.4a14.2,14.2,0,0,1-4.464-3.336l4.176-4.224a10.846,10.846,0,0,0,2.976,2.352,7.777,7.777,0,0,0,3.7.864,4.875,4.875,0,0,0,2.928-.648,2.119,2.119,0,0,0,.816-1.752q0-1.776-2.544-2.112l-2.736-.336q-8.5-1.056-8.5-7.776a7.882,7.882,0,0,1,.7-3.336,7.445,7.445,0,0,1,1.968-2.592,9.163,9.163,0,0,1,3.072-1.68,12.788,12.788,0,0,1,4.056-.6,20.412,20.412,0,0,1,3.48.264,12.11,12.11,0,0,1,2.688.768,10.277,10.277,0,0,1,2.16,1.248,22.742,22.742,0,0,1,1.944,1.656l-4.08,4.176a9.325,9.325,0,0,0-2.712-1.9,7.332,7.332,0,0,0-3.1-.7,4.43,4.43,0,0,0-2.592.576,1.825,1.825,0,0,0-.768,1.536,2.11,2.11,0,0,0,.552,1.56,3.849,3.849,0,0,0,2.088.792l2.832.384q8.3,1.1,8.3,7.584a7.407,7.407,0,0,1-.768,3.36,7.9,7.9,0,0,1-2.184,2.664,10.393,10.393,0,0,1-3.408,1.752A14.813,14.813,0,0,1-116.856,52.576Zm26.736,0a13.3,13.3,0,0,1-5.136-.936A10.6,10.6,0,0,1-99.072,49a11.122,11.122,0,0,1-2.352-4.152,17.722,17.722,0,0,1-.792-5.472,17.825,17.825,0,0,1,.768-5.4,11.48,11.48,0,0,1,2.28-4.152,10.107,10.107,0,0,1,3.72-2.664,12.811,12.811,0,0,1,5.04-.936,12.424,12.424,0,0,1,5.352,1.056,10.1,10.1,0,0,1,3.648,2.832,11.409,11.409,0,0,1,2.064,4.1,18.086,18.086,0,0,1,.648,4.872V41.2H-94.872v.381a5.554,5.554,0,0,0,1.344,3.927A5.5,5.5,0,0,0-89.3,46.96a6.636,6.636,0,0,0,3.6-.881,14.138,14.138,0,0,0,2.592-2.118l3.552,4.428a11.2,11.2,0,0,1-4.392,3.08A16.2,16.2,0,0,1-90.12,52.576Zm-.144-21.12a4.236,4.236,0,0,0-3.384,1.416,5.561,5.561,0,0,0-1.224,3.768v.384h8.832v-.432a6.171,6.171,0,0,0-1.032-3.72A3.686,3.686,0,0,0-90.264,31.456ZM-58.2,47.776h-.24a8.741,8.741,0,0,1-.888,1.824,6.113,6.113,0,0,1-1.416,1.536,6.653,6.653,0,0,1-2.04,1.056,8.738,8.738,0,0,1-2.712.384,6.985,6.985,0,0,1-5.88-2.568q-1.992-2.568-1.992-7.368V26.8h7.1V42.016a6.483,6.483,0,0,0,.816,3.552,3.072,3.072,0,0,0,2.784,1.248,5.759,5.759,0,0,0,1.632-.24,4.632,4.632,0,0,0,1.44-.7,3.584,3.584,0,0,0,1.008-1.128,3.139,3.139,0,0,0,.384-1.584V26.8h7.1V52h-7.1Zm22.848,4.8A14.363,14.363,0,0,1-41.5,51.4a14.2,14.2,0,0,1-4.464-3.336l4.176-4.224a10.846,10.846,0,0,0,2.976,2.352,7.777,7.777,0,0,0,3.7.864,4.875,4.875,0,0,0,2.928-.648,2.119,2.119,0,0,0,.816-1.752q0-1.776-2.544-2.112l-2.736-.336q-8.5-1.056-8.5-7.776a7.882,7.882,0,0,1,.7-3.336A7.445,7.445,0,0,1-42.48,28.5a9.163,9.163,0,0,1,3.072-1.68,12.788,12.788,0,0,1,4.056-.6,20.413,20.413,0,0,1,3.48.264,12.11,12.11,0,0,1,2.688.768,10.277,10.277,0,0,1,2.16,1.248A22.741,22.741,0,0,1-25.08,30.16l-4.08,4.176a9.325,9.325,0,0,0-2.712-1.9,7.332,7.332,0,0,0-3.1-.7,4.43,4.43,0,0,0-2.592.576,1.825,1.825,0,0,0-.768,1.536,2.11,2.11,0,0,0,.552,1.56,3.849,3.849,0,0,0,2.088.792l2.832.384q8.3,1.1,8.3,7.584a7.407,7.407,0,0,1-.768,3.36A7.9,7.9,0,0,1-27.5,50.2a10.393,10.393,0,0,1-3.408,1.752A14.812,14.812,0,0,1-35.352,52.576Zm43.584-4.8h-.24a6.282,6.282,0,0,1-.912,1.9,6.56,6.56,0,0,1-1.512,1.536,7,7,0,0,1-2.016,1.008,7.611,7.611,0,0,1-2.328.36,8.372,8.372,0,0,1-7.248-3.384q-2.448-3.384-2.448-9.816t2.448-9.792a8.394,8.394,0,0,1,7.248-3.36,7.324,7.324,0,0,1,4.344,1.344,5.9,5.9,0,0,1,2.424,3.456h.24V16.48h7.1V52h-7.1Zm-4.656-.96a5.429,5.429,0,0,0,3.336-.984,3.2,3.2,0,0,0,1.32-2.712V35.68a3.2,3.2,0,0,0-1.32-2.712,5.429,5.429,0,0,0-3.336-.984A4.365,4.365,0,0,0,.24,33.4a5.373,5.373,0,0,0-1.32,3.816v4.368A5.373,5.373,0,0,0,.24,45.4,4.365,4.365,0,0,0,3.576,46.816ZM41.16,52a4.469,4.469,0,0,1-3.192-1.2,5.518,5.518,0,0,1-1.608-3.216h-.288a5.826,5.826,0,0,1-2.544,3.72,8.75,8.75,0,0,1-4.848,1.272,7.877,7.877,0,0,1-5.808-2.01,7.167,7.167,0,0,1-2.016-5.311,6.617,6.617,0,0,1,2.9-5.909,14.062,14.062,0,0,1,7.9-1.938H35.64V35.824a4.211,4.211,0,0,0-.96-2.9,4.124,4.124,0,0,0-3.216-1.08,5.578,5.578,0,0,0-3.36.912,9.02,9.02,0,0,0-2.064,2.064l-4.224-3.765A11.037,11.037,0,0,1,25.68,27.5a13.159,13.159,0,0,1,6.312-1.279q5.376,0,8.064,2.352t2.688,6.864V46.48H45.1V52Zm-9.84-4.368a5.824,5.824,0,0,0,3.048-.762,2.665,2.665,0,0,0,1.272-2.477V41.44H32.184q-4.176,0-4.176,2.81v.715a2.357,2.357,0,0,0,.864,2.024A4.038,4.038,0,0,0,31.32,47.632Zm34.56.144h-.24a6.282,6.282,0,0,1-.912,1.9,6.56,6.56,0,0,1-1.512,1.536A7,7,0,0,1,61.2,52.216a7.611,7.611,0,0,1-2.328.36,8.372,8.372,0,0,1-7.248-3.384q-2.448-3.384-2.448-9.816t2.448-9.792a8.394,8.394,0,0,1,7.248-3.36,7.324,7.324,0,0,1,4.344,1.344,5.9,5.9,0,0,1,2.424,3.456h.24V16.48h7.1V52h-7.1Zm-4.656-.96a5.429,5.429,0,0,0,3.336-.984,3.2,3.2,0,0,0,1.32-2.712V35.68a3.2,3.2,0,0,0-1.32-2.712,5.429,5.429,0,0,0-3.336-.984A4.365,4.365,0,0,0,57.888,33.4a5.373,5.373,0,0,0-1.32,3.816v4.368a5.373,5.373,0,0,0,1.32,3.816A4.365,4.365,0,0,0,61.224,46.816Zm29.184,5.76a12.792,12.792,0,0,1-4.968-.912,9.912,9.912,0,0,1-3.7-2.64,12.033,12.033,0,0,1-2.328-4.176,17.24,17.24,0,0,1-.816-5.472,17.24,17.24,0,0,1,.816-5.472,11.778,11.778,0,0,1,2.328-4.152,10.037,10.037,0,0,1,3.7-2.616,13.987,13.987,0,0,1,9.936,0,10.037,10.037,0,0,1,3.7,2.616A11.778,11.778,0,0,1,101.4,33.9a17.24,17.24,0,0,1,.816,5.472,17.24,17.24,0,0,1-.816,5.472,12.033,12.033,0,0,1-2.328,4.176,9.912,9.912,0,0,1-3.7,2.64A12.792,12.792,0,0,1,90.408,52.576Zm0-5.616a4.138,4.138,0,0,0,3.264-1.3,5.384,5.384,0,0,0,1.152-3.7V36.832a5.384,5.384,0,0,0-1.152-3.7,4.758,4.758,0,0,0-6.528,0,5.384,5.384,0,0,0-1.152,3.7v5.136a5.384,5.384,0,0,0,1.152,3.7A4.138,4.138,0,0,0,90.408,46.96Zm25.968,5.616a14.363,14.363,0,0,1-6.144-1.176,14.2,14.2,0,0,1-4.464-3.336l4.176-4.224a10.846,10.846,0,0,0,2.976,2.352,7.777,7.777,0,0,0,3.7.864,4.875,4.875,0,0,0,2.928-.648,2.119,2.119,0,0,0,.816-1.752q0-1.776-2.544-2.112l-2.736-.336q-8.5-1.056-8.5-7.776a7.882,7.882,0,0,1,.7-3.336,7.445,7.445,0,0,1,1.968-2.592,9.163,9.163,0,0,1,3.072-1.68,12.788,12.788,0,0,1,4.056-.6,20.412,20.412,0,0,1,3.48.264,12.11,12.11,0,0,1,2.688.768A10.277,10.277,0,0,1,124.7,28.5a22.742,22.742,0,0,1,1.944,1.656l-4.08,4.176a9.325,9.325,0,0,0-2.712-1.9,7.332,7.332,0,0,0-3.1-.7,4.43,4.43,0,0,0-2.592.576,1.825,1.825,0,0,0-.768,1.536,2.11,2.11,0,0,0,.552,1.56,3.849,3.849,0,0,0,2.088.792l2.832.384q8.3,1.1,8.3,7.584a7.407,7.407,0,0,1-.768,3.36,7.9,7.9,0,0,1-2.184,2.664,10.393,10.393,0,0,1-3.408,1.752A14.813,14.813,0,0,1,116.376,52.576Z" transform="translate(190.392 35.472)" fill="url(#linear-gradient)"/>
  </g>
</svg>
