<svg xmlns="http://www.w3.org/2000/svg" xmlns:xlink="http://www.w3.org/1999/xlink" width="255" height="104" viewBox="0 0 255 104">
  <defs>
    <linearGradient id="linear-gradient" x1="1.045" y1="-0.493" x2="0.307" y2="1" gradientUnits="objectBoundingBox">
      <stop offset="0" stop-color="#2898c9"/>
      <stop offset="1" stop-color="#7e6aec"/>
    </linearGradient>
    <clipPath id="clip-hora-do-show">
      <rect width="255" height="104"/>
    </clipPath>
  </defs>
  <g id="hora-do-show" clip-path="url(#clip-hora-do-show)">
    <g id="show-time" transform="translate(-833 -430)">
      <path id="Caminho_2761" data-name="Caminho 2761" d="M25.824-35.616V0H19.1L18.72-2.976A8.442,8.442,0,0,1,11.472.816,8.175,8.175,0,0,1,4.248-2.832Q1.776-6.48,1.776-12.816a17.756,17.756,0,0,1,1.3-6.96,11.1,11.1,0,0,1,3.672-4.8A9.024,9.024,0,0,1,12.192-26.3a8.2,8.2,0,0,1,6.048,2.4V-36.432Zm-12,30.864q2.64,0,4.416-2.88V-18.624a6.809,6.809,0,0,0-1.848-1.632,4.272,4.272,0,0,0-2.136-.528,3.815,3.815,0,0,0-3.36,1.968q-1.248,1.968-1.248,6.048,0,4.464,1.08,6.24A3.425,3.425,0,0,0,13.824-4.752ZM43.392-26.3q5.856,0,9.168,3.576T55.872-12.72A15.855,15.855,0,0,1,54.36-5.592,11.145,11.145,0,0,1,50.04-.864,12.707,12.707,0,0,1,43.392.816q-5.808,0-9.144-3.576T30.912-12.768A15.855,15.855,0,0,1,32.424-19.9a11.145,11.145,0,0,1,4.32-4.728A12.707,12.707,0,0,1,43.392-26.3Zm0,5.568a3.762,3.762,0,0,0-3.456,1.944,12.183,12.183,0,0,0-1.152,6.024q0,4.176,1.128,6.1a3.759,3.759,0,0,0,3.48,1.92A3.762,3.762,0,0,0,46.848-6.7,12.183,12.183,0,0,0,48-12.72q0-4.176-1.128-6.1A3.759,3.759,0,0,0,43.392-20.736Zm38.5-5.568a15.85,15.85,0,0,1,5.136.816,13.474,13.474,0,0,1,4.224,2.3l-2.784,4.272a11.687,11.687,0,0,0-6.288-1.968,4.263,4.263,0,0,0-2.28.5A1.589,1.589,0,0,0,79.1-18.96a1.841,1.841,0,0,0,.36,1.176,3.884,3.884,0,0,0,1.464.936A31.112,31.112,0,0,0,84.336-15.7a14.325,14.325,0,0,1,5.928,3,6.716,6.716,0,0,1,1.944,5.112A7.053,7.053,0,0,1,90.72-3.1a9.353,9.353,0,0,1-4.08,2.9A15.773,15.773,0,0,1,80.88.816,17.291,17.291,0,0,1,74.9-.192a13.733,13.733,0,0,1-4.68-2.784L73.92-7.1a10.877,10.877,0,0,0,6.768,2.5A5.041,5.041,0,0,0,83.4-5.232a1.986,1.986,0,0,0,.984-1.776A2.4,2.4,0,0,0,84-8.448a3.454,3.454,0,0,0-1.488-.984,34.3,34.3,0,0,0-3.5-1.128,12.486,12.486,0,0,1-5.664-3.072,6.827,6.827,0,0,1-1.872-4.9,6.573,6.573,0,0,1,1.272-3.96,8.613,8.613,0,0,1,3.648-2.784A13.69,13.69,0,0,1,81.888-26.3Zm29.712,0a6.726,6.726,0,0,1,5.184,2.016,8.01,8.01,0,0,1,1.872,5.664V0h-7.584V-17.328a4.248,4.248,0,0,0-.624-2.664,2.189,2.189,0,0,0-1.776-.744q-2.3,0-4.416,3.264V0H96.672V-35.616l7.584-.768v13.632a11.356,11.356,0,0,1,3.36-2.664A8.785,8.785,0,0,1,111.6-26.3Zm24.384,0q5.856,0,9.168,3.576t3.312,10.008a15.855,15.855,0,0,1-1.512,7.128,11.145,11.145,0,0,1-4.32,4.728,12.707,12.707,0,0,1-6.648,1.68q-5.808,0-9.144-3.576T123.5-12.768a15.855,15.855,0,0,1,1.512-7.128,11.145,11.145,0,0,1,4.32-4.728A12.707,12.707,0,0,1,135.984-26.3Zm0,5.568a3.762,3.762,0,0,0-3.456,1.944,12.183,12.183,0,0,0-1.152,6.024q0,4.176,1.128,6.1a3.759,3.759,0,0,0,3.48,1.92A3.762,3.762,0,0,0,139.44-6.7a12.183,12.183,0,0,0,1.152-6.024q0-4.176-1.128-6.1A3.759,3.759,0,0,0,135.984-20.736Zm50.3-4.752L181.008,0h-9.072l-3.408-18.72L165.168,0h-8.976l-5.424-25.488h7.68l2.64,19.824,3.984-19.824h7.392l3.5,19.824,3.072-19.824Zm10.992-7.776-.96,21.024h-6.144l-.96-21.024ZM193.248-7.872a4.214,4.214,0,0,1,3.1,1.272,4.158,4.158,0,0,1,1.272,3.048,4.214,4.214,0,0,1-1.272,3.1,4.214,4.214,0,0,1-3.1,1.272A4.158,4.158,0,0,1,190.2-.456a4.214,4.214,0,0,1-1.272-3.1A4.158,4.158,0,0,1,190.2-6.6,4.158,4.158,0,0,1,193.248-7.872Z" transform="translate(833 533)" fill="url(#linear-gradient)"/>
      <text id="Agora_hora" data-name="Agora, hora" transform="translate(834 475)" fill="#c4c4c4" font-size="48" font-family="FiraSans-Bold, Fira Sans" font-weight="700" letter-spacing="0.012em"><tspan x="0" y="0">Agora, hora</tspan></text>
    </g>
  </g>
</svg>
