<svg xmlns="http://www.w3.org/2000/svg" xmlns:xlink="http://www.w3.org/1999/xlink" width="150" height="33.47" viewBox="0 0 150 33.47">
  <defs>
    <clipPath id="clip-logo">
      <rect width="150" height="33.47"/>
    </clipPath>
  </defs>
  <g id="logo" clip-path="url(#clip-logo)">
    <rect width="150" height="33.47" fill="#fff"/>
    <g id="logo-useall" transform="translate(-12.706 -12.47)">
      <path id="Caminho_2641" data-name="Caminho 2641" d="M719.419,133.2h-.49c-5.8.223-8.471,5.038-8.471,9.407,0,5.306,3.077,8.694,8.471,9.051.312,0,.669.045.981.045a16.144,16.144,0,0,0,6.51-1.248l-.936-3.611a14.279,14.279,0,0,1-4.771.758,7.817,7.817,0,0,1-1.783-.223c-1.739-.4-3.076-1.427-3.21-3.21h11.414a16.739,16.739,0,0,0,.178-2.14C727.31,137.614,725.126,133.2,719.419,133.2Zm-.49,7.223h-3.255c.134-1.427,1.07-3.478,3.255-3.567h.178c2.5,0,3.076,2.274,3.076,3.567Z" transform="translate(-609.421 -105.807)" fill="#fff"/>
      <path id="Caminho_2642" data-name="Caminho 2642" d="M463.94,145.937c0,2.541-.8,4.057-2.72,4.1-1.873-.045-2.675-1.56-2.675-4.1V136.4h-5.529v10.388c0,10.255,16.407,10.255,16.407,0V136.4H463.94Z" transform="translate(-384.572 -108.601)" fill="#fff"/>
      <path id="Caminho_2643" data-name="Caminho 2643" d="M597.977,137.034a9.653,9.653,0,0,1,3.879.981l1.739-3.567a15.375,15.375,0,0,0-5.8-1.248c-4.414.089-7.223,2.5-7.223,5.841-.045,2.051,1.382,4.1,5.083,5.306,2.006.669,2.542,1.115,2.542,2.051,0,.892-.669,1.427-2.318,1.427a10.565,10.565,0,0,1-4.771-1.293l-1.739,3.7a13.512,13.512,0,0,0,6.509,1.471c5.038,0,7.624-2.408,7.624-5.752-.044-2.541-1.427-4.28-4.771-5.439-2.185-.758-2.853-1.159-2.853-2.051C595.881,137.614,596.639,137.034,597.977,137.034Z" transform="translate(-503.676 -105.807)" fill="#fff"/>
      <path id="Caminho_2644" data-name="Caminho 2644" d="M866.635,140.869c0-4.191-1.873-7.669-7.758-7.669h-.134a15.286,15.286,0,0,0-7.223,1.739l1.471,3.388a10.084,10.084,0,0,1,4.9-1.293,5.125,5.125,0,0,1,.847.045c1.962.223,2.363,1.382,2.363,2.229v.223c-.8,0-1.605.045-2.363.089-4.9.535-8.025,2.675-8.025,6.643a5.428,5.428,0,0,0,5.751,5.439,7.576,7.576,0,0,0,2.274-.312,5.688,5.688,0,0,0,2.764-1.873h.134l.312,1.783H866.9a22.675,22.675,0,0,1-.267-4.28Zm-5.35,4.013a6.638,6.638,0,0,1-.089.936,3.1,3.1,0,0,1-2.452,2.006h-.4a1.968,1.968,0,0,1-2.185-2.1c0-1.427,1.025-2.185,2.586-2.541a11.233,11.233,0,0,1,2.541-.223Z" transform="translate(-731.931 -105.807)" fill="#fff"/>
      <path id="Caminho_2645" data-name="Caminho 2645" d="M1000.989,146.918V136.4h-5.395v11.369c0,2.5.535,4.191,1.516,5.217a5.85,5.85,0,0,0,4.191,1.516,15.235,15.235,0,0,0,4.1-.535l-.713-4.1C1002.237,150.4,1000.989,149.772,1000.989,146.918Z" transform="translate(-858.391 -108.601)" fill="#fff"/>
      <path id="Caminho_2646" data-name="Caminho 2646" d="M1086.566,146.918V136.4h-5.4v11.369c0,2.5.491,4.191,1.516,5.217a5.663,5.663,0,0,0,4.146,1.516,14.968,14.968,0,0,0,4.1-.535l-.714-4.1C1087.77,150.4,1086.566,149.772,1086.566,146.918Z" transform="translate(-933.223 -108.601)" fill="#fff"/>
      <path id="Caminho_2647" data-name="Caminho 2647" d="M96.713,24.954a6.242,6.242,0,1,0-6.242-6.242A6.222,6.222,0,0,0,96.713,24.954Z" transform="translate(-68.001 0)" fill="#fff"/>
      <path id="Caminho_2648" data-name="Caminho 2648" d="M39.948,147.541c-2.675,0-5.707-5.172-7.669-7.267a11.025,11.025,0,0,0-8.07-3.478c-9.809,0-11.5,10.433-11.5,18.057h7.178c.089-3.3-.446-10.79,4.459-10.79,2.452,0,4.592,3.656,6.064,5.395,2.809,3.21,5.306,5.35,9.675,5.35,9.72,0,11.5-10.478,11.5-18.057H44.406C44.317,140.095,44.718,147.541,39.948,147.541Z" transform="translate(0 -108.912)" fill="#fff"/>
      <path id="Caminho_2649" data-name="Caminho 2649" d="M1154.609,137.332a2.921,2.921,0,0,0-2.185-.936,3.121,3.121,0,0,0-3.076,3.121,3.045,3.045,0,0,0,3.076,3.076,3.121,3.121,0,0,0,3.121-3.076A2.921,2.921,0,0,0,1154.609,137.332Zm-.357,3.968a2.642,2.642,0,1,1,.713-1.783A2.65,2.65,0,0,1,1154.252,141.3Z" transform="translate(-992.84 -108.499)" fill="#fff"/>
      <path id="Caminho_2650" data-name="Caminho 2650" d="M1166.447,149.189a2.479,2.479,0,0,0-.357-.267,1.172,1.172,0,0,0,.669-.312.943.943,0,0,0,.178-.624,1.185,1.185,0,0,0-.134-.535,1.2,1.2,0,0,0-.356-.312,3.321,3.321,0,0,0-.8-.089h-1.382v3.3h.669v-1.382h.134a2.508,2.508,0,0,1,.312.045.972.972,0,0,1,.223.134,3.926,3.926,0,0,0,.357.49l.49.713h.758l-.4-.624A2.148,2.148,0,0,0,1166.447,149.189Zm-.847-.713h-.669v-.847h.981a.723.723,0,0,1,.268.134.634.634,0,0,1,.089.268.564.564,0,0,1-.045.267.974.974,0,0,1-.223.134A2.464,2.464,0,0,1,1165.6,148.476Z" transform="translate(-1005.881 -117.812)" fill="#fff"/>
    </g>
  </g>
</svg>
