<svg xmlns="http://www.w3.org/2000/svg" xmlns:xlink="http://www.w3.org/1999/xlink" width="255" height="89" viewBox="0 0 255 89">
  <defs>
    <linearGradient id="linear-gradient" x1="0.031" y1="-0.069" x2="0.843" y2="0.93" gradientUnits="objectBoundingBox">
      <stop offset="0" stop-color="#7e6aec"/>
      <stop offset="1" stop-color="#2898c9"/>
    </linearGradient>
    <clipPath id="clip-mas-antes">
      <rect width="400" height="89"/>
    </clipPath>
  </defs>
  <g id="mas-antes" clip-path="url(#clip-mas-antes)">
    <path id="Caminho_4256" data-name="Caminho 4256" d="M28.752-21.984h-.144l-2.448,4.9L19.632-5.232,13.248-17.04,10.7-22.32H10.56V0H3.7V-33.5h7.728l8.208,15.7h.1L27.84-33.5h7.776V0H28.752ZM61.824,0a4.469,4.469,0,0,1-3.192-1.2,5.518,5.518,0,0,1-1.608-3.216h-.288A5.826,5.826,0,0,1,54.192-.7,8.75,8.75,0,0,1,49.344.576a7.877,7.877,0,0,1-5.808-2.01A7.167,7.167,0,0,1,41.52-6.745a6.617,6.617,0,0,1,2.9-5.909,14.062,14.062,0,0,1,7.9-1.938H56.3v-1.584a4.211,4.211,0,0,0-.96-2.9,4.124,4.124,0,0,0-3.216-1.08,5.578,5.578,0,0,0-3.36.912A9.02,9.02,0,0,0,46.7-17.184L42.48-20.949A11.037,11.037,0,0,1,46.344-24.5a13.159,13.159,0,0,1,6.312-1.279q5.376,0,8.064,2.352t2.688,6.864V-5.52H65.76V0Zm-9.84-4.368a5.824,5.824,0,0,0,3.048-.762A2.665,2.665,0,0,0,56.3-7.607V-10.56H52.848q-4.176,0-4.176,2.81v.715a2.357,2.357,0,0,0,.864,2.024A4.038,4.038,0,0,0,51.984-4.368ZM79.632.576A14.363,14.363,0,0,1,73.488-.6a14.2,14.2,0,0,1-4.464-3.336L73.2-8.16a10.846,10.846,0,0,0,2.976,2.352,7.777,7.777,0,0,0,3.7.864A4.875,4.875,0,0,0,82.8-5.592a2.119,2.119,0,0,0,.816-1.752q0-1.776-2.544-2.112l-2.736-.336q-8.5-1.056-8.5-7.776a7.882,7.882,0,0,1,.7-3.336A7.445,7.445,0,0,1,72.5-23.5a9.163,9.163,0,0,1,3.072-1.68,12.788,12.788,0,0,1,4.056-.6,20.412,20.412,0,0,1,3.48.264,12.11,12.11,0,0,1,2.688.768A10.277,10.277,0,0,1,87.96-23.5,22.742,22.742,0,0,1,89.9-21.84l-4.08,4.176a9.325,9.325,0,0,0-2.712-1.9,7.332,7.332,0,0,0-3.1-.7,4.43,4.43,0,0,0-2.592.576,1.825,1.825,0,0,0-.768,1.536,2.11,2.11,0,0,0,.552,1.56,3.849,3.849,0,0,0,2.088.792l2.832.384q8.3,1.1,8.3,7.584a7.407,7.407,0,0,1-.768,3.36A7.9,7.9,0,0,1,87.48-1.8,10.393,10.393,0,0,1,84.072-.048,14.813,14.813,0,0,1,79.632.576ZM126.384,0a4.469,4.469,0,0,1-3.192-1.2,5.518,5.518,0,0,1-1.608-3.216H121.3A5.826,5.826,0,0,1,118.752-.7,8.75,8.75,0,0,1,113.9.576a7.877,7.877,0,0,1-5.808-2.01,7.167,7.167,0,0,1-2.016-5.311,6.617,6.617,0,0,1,2.9-5.909,14.062,14.062,0,0,1,7.9-1.938h3.984v-1.584a4.211,4.211,0,0,0-.96-2.9,4.124,4.124,0,0,0-3.216-1.08,5.578,5.578,0,0,0-3.36.912,9.02,9.02,0,0,0-2.064,2.064l-4.224-3.765A11.037,11.037,0,0,1,110.9-24.5a13.159,13.159,0,0,1,6.312-1.279q5.376,0,8.064,2.352t2.688,6.864V-5.52h2.352V0Zm-9.84-4.368a5.824,5.824,0,0,0,3.048-.762,2.665,2.665,0,0,0,1.272-2.477V-10.56h-3.456q-4.176,0-4.176,2.81v.715a2.357,2.357,0,0,0,.864,2.024A4.038,4.038,0,0,0,116.544-4.368ZM135.648,0V-25.2h7.1v4.272h.288a7.729,7.729,0,0,1,2.352-3.408,6.929,6.929,0,0,1,4.656-1.44,6.958,6.958,0,0,1,5.88,2.592q1.992,2.592,1.992,7.392V0h-7.1V-15.216a6.747,6.747,0,0,0-.768-3.624,3.019,3.019,0,0,0-2.736-1.176,6.537,6.537,0,0,0-1.68.216,4.269,4.269,0,0,0-1.464.7,3.633,3.633,0,0,0-1.032,1.176,3.274,3.274,0,0,0-.384,1.608V0Zm38.016,0a7.642,7.642,0,0,1-5.592-1.872,7.358,7.358,0,0,1-1.9-5.472V-19.68h-3.552V-25.2H164.4a2.343,2.343,0,0,0,1.968-.7,3.245,3.245,0,0,0,.528-1.992v-4.128h6.384V-25.2h4.992v5.52H173.28V-5.52h4.608V0Zm20.448.576a13.3,13.3,0,0,1-5.136-.936A10.6,10.6,0,0,1,185.16-3a11.122,11.122,0,0,1-2.352-4.152,17.722,17.722,0,0,1-.792-5.472,17.825,17.825,0,0,1,.768-5.4,11.48,11.48,0,0,1,2.28-4.152,10.107,10.107,0,0,1,3.72-2.664,12.81,12.81,0,0,1,5.04-.936,12.424,12.424,0,0,1,5.352,1.056,10.1,10.1,0,0,1,3.648,2.832,11.41,11.41,0,0,1,2.064,4.1,18.086,18.086,0,0,1,.648,4.872V-10.8H189.36v.381A5.554,5.554,0,0,0,190.7-6.492a5.5,5.5,0,0,0,4.224,1.452,6.636,6.636,0,0,0,3.6-.881,14.139,14.139,0,0,0,2.592-2.118l3.552,4.428a11.2,11.2,0,0,1-4.392,3.08A16.2,16.2,0,0,1,194.112.576Zm-.144-21.12a4.236,4.236,0,0,0-3.384,1.416,5.561,5.561,0,0,0-1.224,3.768v.384h8.832v-.432a6.171,6.171,0,0,0-1.032-3.72A3.686,3.686,0,0,0,193.968-20.544ZM219.7.576A14.363,14.363,0,0,1,213.552-.6a14.2,14.2,0,0,1-4.464-3.336l4.176-4.224a10.847,10.847,0,0,0,2.976,2.352,7.777,7.777,0,0,0,3.7.864,4.875,4.875,0,0,0,2.928-.648,2.119,2.119,0,0,0,.816-1.752q0-1.776-2.544-2.112L218.4-9.792q-8.5-1.056-8.5-7.776a7.882,7.882,0,0,1,.7-3.336,7.445,7.445,0,0,1,1.968-2.592,9.163,9.163,0,0,1,3.072-1.68,12.788,12.788,0,0,1,4.056-.6,20.412,20.412,0,0,1,3.48.264,12.11,12.11,0,0,1,2.688.768,10.277,10.277,0,0,1,2.16,1.248,22.742,22.742,0,0,1,1.944,1.656l-4.08,4.176a9.324,9.324,0,0,0-2.712-1.9,7.332,7.332,0,0,0-3.1-.7,4.43,4.43,0,0,0-2.592.576,1.825,1.825,0,0,0-.768,1.536,2.11,2.11,0,0,0,.552,1.56,3.849,3.849,0,0,0,2.088.792l2.832.384q8.3,1.1,8.3,7.584a7.407,7.407,0,0,1-.768,3.36A7.9,7.9,0,0,1,227.544-1.8a10.393,10.393,0,0,1-3.408,1.752A14.813,14.813,0,0,1,219.7.576Zm19.968-8.688a4.231,4.231,0,0,1,3.192,1.08,3.832,3.832,0,0,1,1.032,2.76v.96a12.753,12.753,0,0,1-1.416,5.76,13.112,13.112,0,0,1-3.72,4.608h-4.8a26.912,26.912,0,0,0,2.88-3.144,11.48,11.48,0,0,0,1.824-3.48,3.67,3.67,0,0,1-2.448-1.32,3.948,3.948,0,0,1-.768-2.424v-.96a3.832,3.832,0,0,1,1.032-2.76A4.231,4.231,0,0,1,239.664-8.112ZM11.856,50.576A14.363,14.363,0,0,1,5.712,49.4a14.2,14.2,0,0,1-4.464-3.336L5.424,41.84A10.846,10.846,0,0,0,8.4,44.192a7.777,7.777,0,0,0,3.7.864,4.875,4.875,0,0,0,2.928-.648,2.119,2.119,0,0,0,.816-1.752q0-1.776-2.544-2.112l-2.736-.336q-8.5-1.056-8.5-7.776a7.882,7.882,0,0,1,.7-3.336A7.445,7.445,0,0,1,4.728,26.5,9.163,9.163,0,0,1,7.8,24.824a12.788,12.788,0,0,1,4.056-.6,20.413,20.413,0,0,1,3.48.264,12.11,12.11,0,0,1,2.688.768,10.277,10.277,0,0,1,2.16,1.248,22.741,22.741,0,0,1,1.944,1.656l-4.08,4.176a9.325,9.325,0,0,0-2.712-1.9,7.332,7.332,0,0,0-3.1-.7,4.43,4.43,0,0,0-2.592.576,1.825,1.825,0,0,0-.768,1.536,2.11,2.11,0,0,0,.552,1.56,3.849,3.849,0,0,0,2.088.792l2.832.384q8.3,1.1,8.3,7.584a7.407,7.407,0,0,1-.768,3.36A7.9,7.9,0,0,1,19.7,48.2,10.393,10.393,0,0,1,16.3,49.952,14.813,14.813,0,0,1,11.856,50.576Zm26.736,0a13.3,13.3,0,0,1-5.136-.936A10.6,10.6,0,0,1,29.64,47a11.122,11.122,0,0,1-2.352-4.152,17.722,17.722,0,0,1-.792-5.472,17.825,17.825,0,0,1,.768-5.4,11.48,11.48,0,0,1,2.28-4.152,10.107,10.107,0,0,1,3.72-2.664,12.811,12.811,0,0,1,5.04-.936,12.424,12.424,0,0,1,5.352,1.056A10.1,10.1,0,0,1,47.3,28.112a11.409,11.409,0,0,1,2.064,4.1,18.086,18.086,0,0,1,.648,4.872V39.2H33.84v.381a5.554,5.554,0,0,0,1.344,3.927,5.5,5.5,0,0,0,4.224,1.452,6.636,6.636,0,0,0,3.6-.881A14.139,14.139,0,0,0,45.6,41.961l3.552,4.428a11.2,11.2,0,0,1-4.392,3.08A16.2,16.2,0,0,1,38.592,50.576Zm-.144-21.12a4.236,4.236,0,0,0-3.384,1.416A5.561,5.561,0,0,0,33.84,34.64v.384h8.832v-.432a6.171,6.171,0,0,0-1.032-3.72A3.686,3.686,0,0,0,38.448,29.456Zm32.064,16.32h-.24a8.741,8.741,0,0,1-.888,1.824,6.113,6.113,0,0,1-1.416,1.536,6.653,6.653,0,0,1-2.04,1.056,8.738,8.738,0,0,1-2.712.384,6.985,6.985,0,0,1-5.88-2.568q-1.992-2.568-1.992-7.368V24.8h7.1V40.016a6.483,6.483,0,0,0,.816,3.552,3.072,3.072,0,0,0,2.784,1.248,5.759,5.759,0,0,0,1.632-.24,4.632,4.632,0,0,0,1.44-.7,3.584,3.584,0,0,0,1.008-1.128,3.139,3.139,0,0,0,.384-1.584V24.8h7.1V50h-7.1Zm22.848,4.8A14.363,14.363,0,0,1,87.216,49.4a14.2,14.2,0,0,1-4.464-3.336l4.176-4.224A10.846,10.846,0,0,0,89.9,44.192a7.777,7.777,0,0,0,3.7.864,4.875,4.875,0,0,0,2.928-.648,2.119,2.119,0,0,0,.816-1.752q0-1.776-2.544-2.112l-2.736-.336q-8.5-1.056-8.5-7.776a7.882,7.882,0,0,1,.7-3.336A7.445,7.445,0,0,1,86.232,26.5a9.163,9.163,0,0,1,3.072-1.68,12.788,12.788,0,0,1,4.056-.6,20.412,20.412,0,0,1,3.48.264,12.11,12.11,0,0,1,2.688.768,10.277,10.277,0,0,1,2.16,1.248,22.742,22.742,0,0,1,1.944,1.656l-4.08,4.176a9.325,9.325,0,0,0-2.712-1.9,7.332,7.332,0,0,0-3.1-.7,4.43,4.43,0,0,0-2.592.576,1.825,1.825,0,0,0-.768,1.536,2.11,2.11,0,0,0,.552,1.56,3.849,3.849,0,0,0,2.088.792l2.832.384q8.3,1.1,8.3,7.584a7.407,7.407,0,0,1-.768,3.36,7.9,7.9,0,0,1-2.184,2.664A10.393,10.393,0,0,1,97.8,49.952,14.813,14.813,0,0,1,93.36,50.576Zm43.584-4.8h-.24a6.282,6.282,0,0,1-.912,1.9,6.56,6.56,0,0,1-1.512,1.536,7,7,0,0,1-2.016,1.008,7.611,7.611,0,0,1-2.328.36,8.372,8.372,0,0,1-7.248-3.384q-2.448-3.384-2.448-9.816t2.448-9.792a8.394,8.394,0,0,1,7.248-3.36,7.324,7.324,0,0,1,4.344,1.344,5.9,5.9,0,0,1,2.424,3.456h.24V14.48h7.1V50h-7.1Zm-4.656-.96a5.429,5.429,0,0,0,3.336-.984,3.2,3.2,0,0,0,1.32-2.712V33.68a3.2,3.2,0,0,0-1.32-2.712,5.429,5.429,0,0,0-3.336-.984,4.365,4.365,0,0,0-3.336,1.416,5.373,5.373,0,0,0-1.32,3.816v4.368a5.373,5.373,0,0,0,1.32,3.816A4.365,4.365,0,0,0,132.288,44.816ZM169.872,50a4.469,4.469,0,0,1-3.192-1.2,5.518,5.518,0,0,1-1.608-3.216h-.288a5.826,5.826,0,0,1-2.544,3.72,8.75,8.75,0,0,1-4.848,1.272,7.877,7.877,0,0,1-5.808-2.01,7.167,7.167,0,0,1-2.016-5.311,6.617,6.617,0,0,1,2.9-5.909,14.062,14.062,0,0,1,7.9-1.938h3.984V33.824a4.211,4.211,0,0,0-.96-2.9,4.124,4.124,0,0,0-3.216-1.08,5.578,5.578,0,0,0-3.36.912,9.02,9.02,0,0,0-2.064,2.064l-4.224-3.765a11.038,11.038,0,0,1,3.864-3.548,13.159,13.159,0,0,1,6.312-1.279q5.376,0,8.064,2.352t2.688,6.864V44.48h2.352V50Zm-9.84-4.368a5.824,5.824,0,0,0,3.048-.762,2.665,2.665,0,0,0,1.272-2.477V39.44H160.9q-4.176,0-4.176,2.81v.715a2.357,2.357,0,0,0,.864,2.024A4.038,4.038,0,0,0,160.032,45.632Zm34.56.144h-.24a6.282,6.282,0,0,1-.912,1.9,6.56,6.56,0,0,1-1.512,1.536,7,7,0,0,1-2.016,1.008,7.611,7.611,0,0,1-2.328.36,8.372,8.372,0,0,1-7.248-3.384q-2.448-3.384-2.448-9.816t2.448-9.792a8.394,8.394,0,0,1,7.248-3.36,7.324,7.324,0,0,1,4.344,1.344,5.9,5.9,0,0,1,2.424,3.456h.24V14.48h7.1V50h-7.1Zm-4.656-.96a5.429,5.429,0,0,0,3.336-.984,3.2,3.2,0,0,0,1.32-2.712V33.68a3.2,3.2,0,0,0-1.32-2.712,5.429,5.429,0,0,0-3.336-.984A4.365,4.365,0,0,0,186.6,31.4a5.373,5.373,0,0,0-1.32,3.816v4.368A5.373,5.373,0,0,0,186.6,43.4,4.365,4.365,0,0,0,189.936,44.816Zm29.184,5.76a12.792,12.792,0,0,1-4.968-.912,9.912,9.912,0,0,1-3.7-2.64,12.033,12.033,0,0,1-2.328-4.176,17.24,17.24,0,0,1-.816-5.472,17.24,17.24,0,0,1,.816-5.472,11.778,11.778,0,0,1,2.328-4.152,10.037,10.037,0,0,1,3.7-2.616,13.987,13.987,0,0,1,9.936,0,10.037,10.037,0,0,1,3.7,2.616,11.777,11.777,0,0,1,2.328,4.152,17.241,17.241,0,0,1,.816,5.472,17.241,17.241,0,0,1-.816,5.472,12.033,12.033,0,0,1-2.328,4.176,9.912,9.912,0,0,1-3.7,2.64A12.792,12.792,0,0,1,219.12,50.576Zm0-5.616a4.138,4.138,0,0,0,3.264-1.3,5.384,5.384,0,0,0,1.152-3.7V34.832a5.384,5.384,0,0,0-1.152-3.7,4.758,4.758,0,0,0-6.528,0,5.384,5.384,0,0,0-1.152,3.7v5.136a5.384,5.384,0,0,0,1.152,3.7A4.138,4.138,0,0,0,219.12,44.96Zm25.968,5.616a14.363,14.363,0,0,1-6.144-1.176,14.2,14.2,0,0,1-4.464-3.336l4.176-4.224a10.846,10.846,0,0,0,2.976,2.352,7.777,7.777,0,0,0,3.7.864,4.875,4.875,0,0,0,2.928-.648,2.119,2.119,0,0,0,.816-1.752q0-1.776-2.544-2.112l-2.736-.336q-8.5-1.056-8.5-7.776a7.882,7.882,0,0,1,.7-3.336A7.445,7.445,0,0,1,237.96,26.5a9.163,9.163,0,0,1,3.072-1.68,12.788,12.788,0,0,1,4.056-.6,20.412,20.412,0,0,1,3.48.264,12.11,12.11,0,0,1,2.688.768,10.277,10.277,0,0,1,2.16,1.248,22.742,22.742,0,0,1,1.944,1.656l-4.08,4.176a9.324,9.324,0,0,0-2.712-1.9,7.332,7.332,0,0,0-3.1-.7,4.43,4.43,0,0,0-2.592.576,1.825,1.825,0,0,0-.768,1.536,2.11,2.11,0,0,0,.552,1.56,3.849,3.849,0,0,0,2.088.792l2.832.384q8.3,1.1,8.3,7.584a7.407,7.407,0,0,1-.768,3.36,7.9,7.9,0,0,1-2.184,2.664,10.393,10.393,0,0,1-3.408,1.752A14.812,14.812,0,0,1,245.088,50.576Z" transform="translate(-1.248 33.504)" fill="url(#linear-gradient)"/>
  </g>
</svg>
