<svg xmlns="http://www.w3.org/2000/svg" xmlns:xlink="http://www.w3.org/1999/xlink" width="269" height="92" viewBox="0 0 269 92">
  <defs>
    <linearGradient id="linear-gradient" x1="0.937" x2="0.39" y2="0.876" gradientUnits="objectBoundingBox">
      <stop offset="0" stop-color="#2897c7"/>
      <stop offset="1" stop-color="#736ade"/>
    </linearGradient>
    <clipPath id="clip-politica-privacidade">
      <rect width="269" height="92"/>
    </clipPath>
  </defs>
  <g id="politica-privacidade" clip-path="url(#clip-politica-privacidade)">
    <path id="Caminho_2757" data-name="Caminho 2757" d="M-123.936,0V-33.5h15.84a10.746,10.746,0,0,1,4.224.792,9.368,9.368,0,0,1,3.192,2.184,9.575,9.575,0,0,1,2.04,3.384,12.691,12.691,0,0,1,.72,4.344,12.635,12.635,0,0,1-.72,4.368,9.613,9.613,0,0,1-2.04,3.36,9.368,9.368,0,0,1-3.192,2.184,10.746,10.746,0,0,1-4.224.792h-8.544V0Zm7.3-18.432h7.68a3.705,3.705,0,0,0,2.568-.84,3.151,3.151,0,0,0,.936-2.472v-2.112a3.151,3.151,0,0,0-.936-2.472,3.705,3.705,0,0,0-2.568-.84h-7.68ZM-82.992.576A12.792,12.792,0,0,1-87.96-.336a9.912,9.912,0,0,1-3.7-2.64,12.033,12.033,0,0,1-2.328-4.176,17.24,17.24,0,0,1-.816-5.472,17.24,17.24,0,0,1,.816-5.472,11.778,11.778,0,0,1,2.328-4.152,10.037,10.037,0,0,1,3.7-2.616,12.792,12.792,0,0,1,4.968-.912,12.792,12.792,0,0,1,4.968.912,10.037,10.037,0,0,1,3.7,2.616A11.778,11.778,0,0,1-72-18.1a17.24,17.24,0,0,1,.816,5.472A17.24,17.24,0,0,1-72-7.152a12.033,12.033,0,0,1-2.328,4.176,9.912,9.912,0,0,1-3.7,2.64A12.792,12.792,0,0,1-82.992.576Zm0-5.616a4.138,4.138,0,0,0,3.264-1.3,5.384,5.384,0,0,0,1.152-3.7v-5.136a5.384,5.384,0,0,0-1.152-3.7,4.138,4.138,0,0,0-3.264-1.3,4.138,4.138,0,0,0-3.264,1.3,5.384,5.384,0,0,0-1.152,3.7v5.136a5.384,5.384,0,0,0,1.152,3.7A4.138,4.138,0,0,0-82.992-5.04ZM-58.512,0q-3.648,0-5.352-1.776a7.132,7.132,0,0,1-1.7-5.136V-35.52h7.1v30H-55.3V0Zm8.064,0V-25.2h7.1V0Zm4.368-27.792L-50.3-29.856l4.752-9.312,5.9,2.928ZM-27.312,0A7.642,7.642,0,0,1-32.9-1.872a7.358,7.358,0,0,1-1.9-5.472V-19.68h-3.552V-25.2h1.776a2.343,2.343,0,0,0,1.968-.7,3.245,3.245,0,0,0,.528-1.992v-4.128H-27.7V-25.2H-22.7v5.52H-27.7V-5.52h4.608V0Zm13.68-27.888a4.305,4.305,0,0,1-3.144-.984,3.412,3.412,0,0,1-.984-2.52v-1.056a3.412,3.412,0,0,1,.984-2.52,4.305,4.305,0,0,1,3.144-.984,4.305,4.305,0,0,1,3.144.984,3.412,3.412,0,0,1,.984,2.52v1.056a3.412,3.412,0,0,1-.984,2.52A4.305,4.305,0,0,1-13.632-27.888ZM-17.184-25.2h7.1V0h-7.1ZM7.3.576A12.81,12.81,0,0,1,2.256-.36,10.014,10.014,0,0,1-1.44-3,11.413,11.413,0,0,1-3.7-7.152a18.235,18.235,0,0,1-.768-5.472A18,18,0,0,1-3.7-18.072,11.682,11.682,0,0,1-1.44-22.224a9.663,9.663,0,0,1,3.7-2.64,13.107,13.107,0,0,1,5.04-.912A11.228,11.228,0,0,1,13.7-24.048,9.46,9.46,0,0,1,17.376-19.2l-5.76,2.5a4.829,4.829,0,0,0-1.392-2.448A4.068,4.068,0,0,0,7.3-20.16a3.886,3.886,0,0,0-3.264,1.416,6.046,6.046,0,0,0-1.1,3.816v4.7a5.942,5.942,0,0,0,1.1,3.792A3.915,3.915,0,0,0,7.3-5.04a4.342,4.342,0,0,0,3.048-1.032A6.039,6.039,0,0,0,12-8.784l5.52,2.4A9.816,9.816,0,0,1,13.656-1.1,11.525,11.525,0,0,1,7.3.576ZM41.136,0a4.469,4.469,0,0,1-3.192-1.2,5.518,5.518,0,0,1-1.608-3.216h-.288A5.826,5.826,0,0,1,33.5-.7,8.75,8.75,0,0,1,28.656.576a7.877,7.877,0,0,1-5.808-2.01,7.167,7.167,0,0,1-2.016-5.311,6.617,6.617,0,0,1,2.9-5.909,14.062,14.062,0,0,1,7.9-1.938h3.984v-1.584a4.211,4.211,0,0,0-.96-2.9,4.124,4.124,0,0,0-3.216-1.08,5.578,5.578,0,0,0-3.36.912,9.02,9.02,0,0,0-2.064,2.064l-4.224-3.765A11.037,11.037,0,0,1,25.656-24.5a13.159,13.159,0,0,1,6.312-1.279q5.376,0,8.064,2.352T42.72-16.56V-5.52h2.352V0ZM31.3-4.368a5.824,5.824,0,0,0,3.048-.762,2.665,2.665,0,0,0,1.272-2.477V-10.56H32.16q-4.176,0-4.176,2.81v.715a2.357,2.357,0,0,0,.864,2.024A4.038,4.038,0,0,0,31.3-4.368Zm46.464.144h-.24a6.282,6.282,0,0,1-.912,1.9A6.56,6.56,0,0,1,75.1-.792,7,7,0,0,1,73.08.216a7.611,7.611,0,0,1-2.328.36A8.372,8.372,0,0,1,63.5-2.808q-2.448-3.384-2.448-9.816T63.5-22.416a8.394,8.394,0,0,1,7.248-3.36A7.324,7.324,0,0,1,75.1-24.432a5.9,5.9,0,0,1,2.424,3.456h.24V-35.52h7.1V0h-7.1ZM73.1-5.184a5.429,5.429,0,0,0,3.336-.984A3.2,3.2,0,0,0,77.76-8.88v-7.44a3.2,3.2,0,0,0-1.32-2.712,5.429,5.429,0,0,0-3.336-.984A4.365,4.365,0,0,0,69.768-18.6a5.373,5.373,0,0,0-1.32,3.816v4.368A5.373,5.373,0,0,0,69.768-6.6,4.365,4.365,0,0,0,73.1-5.184ZM102.576.576A13.3,13.3,0,0,1,97.44-.36,10.6,10.6,0,0,1,93.624-3a11.122,11.122,0,0,1-2.352-4.152,17.722,17.722,0,0,1-.792-5.472,17.825,17.825,0,0,1,.768-5.4,11.48,11.48,0,0,1,2.28-4.152,10.107,10.107,0,0,1,3.72-2.664,12.811,12.811,0,0,1,5.04-.936,12.424,12.424,0,0,1,5.352,1.056,10.1,10.1,0,0,1,3.648,2.832,11.41,11.41,0,0,1,2.064,4.1A18.086,18.086,0,0,1,114-12.912V-10.8H97.824v.381a5.554,5.554,0,0,0,1.344,3.927,5.5,5.5,0,0,0,4.224,1.452,6.636,6.636,0,0,0,3.6-.881,14.138,14.138,0,0,0,2.592-2.118l3.552,4.428a11.2,11.2,0,0,1-4.392,3.08A16.2,16.2,0,0,1,102.576.576Zm-.144-21.12a4.236,4.236,0,0,0-3.384,1.416,5.561,5.561,0,0,0-1.224,3.768v.384h8.832v-.432a6.171,6.171,0,0,0-1.032-3.72A3.686,3.686,0,0,0,102.432-20.544ZM-133.2,52V18.5h15.84a10.746,10.746,0,0,1,4.224.792,9.368,9.368,0,0,1,3.192,2.184,9.575,9.575,0,0,1,2.04,3.384,12.691,12.691,0,0,1,.72,4.344,12.635,12.635,0,0,1-.72,4.368,9.613,9.613,0,0,1-2.04,3.36,9.368,9.368,0,0,1-3.192,2.184,10.746,10.746,0,0,1-4.224.792H-125.9V52Zm7.3-18.432h7.68a3.705,3.705,0,0,0,2.568-.84,3.151,3.151,0,0,0,.936-2.472V28.144a3.151,3.151,0,0,0-.936-2.472,3.705,3.705,0,0,0-2.568-.84h-7.68ZM-102,52V26.8h7.1v5.472h.24a7.828,7.828,0,0,1,.672-2.04,6.225,6.225,0,0,1,1.272-1.752,5.955,5.955,0,0,1,1.9-1.224,6.76,6.76,0,0,1,2.592-.456h1.248v6.624h-1.776a10.118,10.118,0,0,0-4.632.816A3.124,3.124,0,0,0-94.9,37.264V52Zm23.52-27.888a4.305,4.305,0,0,1-3.144-.984,3.412,3.412,0,0,1-.984-2.52V19.552a3.412,3.412,0,0,1,.984-2.52,4.305,4.305,0,0,1,3.144-.984,4.305,4.305,0,0,1,3.144.984,3.412,3.412,0,0,1,.984,2.52v1.056a3.412,3.412,0,0,1-.984,2.52A4.305,4.305,0,0,1-78.48,24.112ZM-82.032,26.8h7.1V52h-7.1ZM-62.352,52l-8.256-25.2H-63.6l3.12,10.176,2.352,9.12h.384l2.352-9.12L-52.368,26.8h6.72L-53.9,52Zm39.216,0a4.469,4.469,0,0,1-3.192-1.2,5.518,5.518,0,0,1-1.608-3.216h-.288a5.826,5.826,0,0,1-2.544,3.72,8.75,8.75,0,0,1-4.848,1.272,7.877,7.877,0,0,1-5.808-2.01,7.167,7.167,0,0,1-2.016-5.311,6.617,6.617,0,0,1,2.9-5.909,14.062,14.062,0,0,1,7.9-1.938h3.984V35.824a4.211,4.211,0,0,0-.96-2.9,4.124,4.124,0,0,0-3.216-1.08,5.578,5.578,0,0,0-3.36.912,9.02,9.02,0,0,0-2.064,2.064l-4.224-3.765A11.037,11.037,0,0,1-38.616,27.5,13.159,13.159,0,0,1-32.3,26.224q5.376,0,8.064,2.352t2.688,6.864V46.48H-19.2V52Zm-9.84-4.368a5.824,5.824,0,0,0,3.048-.762,2.665,2.665,0,0,0,1.272-2.477V41.44h-3.456q-4.176,0-4.176,2.81v.715a2.357,2.357,0,0,0,.864,2.024A4.038,4.038,0,0,0-32.976,47.632ZM-3.7,52.576a12.81,12.81,0,0,1-5.04-.936,10.014,10.014,0,0,1-3.7-2.64,11.413,11.413,0,0,1-2.256-4.152,18.235,18.235,0,0,1-.768-5.472,18,18,0,0,1,.768-5.448,11.682,11.682,0,0,1,2.256-4.152,9.663,9.663,0,0,1,3.7-2.64,13.107,13.107,0,0,1,5.04-.912,11.228,11.228,0,0,1,6.408,1.728A9.46,9.46,0,0,1,6.384,32.8L.624,35.3A4.829,4.829,0,0,0-.768,32.848,4.068,4.068,0,0,0-3.7,31.84,3.886,3.886,0,0,0-6.96,33.256a6.046,6.046,0,0,0-1.1,3.816v4.7a5.942,5.942,0,0,0,1.1,3.792A3.915,3.915,0,0,0-3.7,46.96,4.342,4.342,0,0,0-.648,45.928a6.039,6.039,0,0,0,1.656-2.712l5.52,2.4A9.816,9.816,0,0,1,2.664,50.9,11.525,11.525,0,0,1-3.7,52.576ZM15.072,24.112a4.305,4.305,0,0,1-3.144-.984,3.412,3.412,0,0,1-.984-2.52V19.552a3.412,3.412,0,0,1,.984-2.52,4.305,4.305,0,0,1,3.144-.984,4.305,4.305,0,0,1,3.144.984,3.412,3.412,0,0,1,.984,2.52v1.056a3.412,3.412,0,0,1-.984,2.52A4.305,4.305,0,0,1,15.072,24.112ZM11.52,26.8h7.1V52h-7.1ZM41.28,47.776h-.24a6.282,6.282,0,0,1-.912,1.9,6.56,6.56,0,0,1-1.512,1.536A7,7,0,0,1,36.6,52.216a7.611,7.611,0,0,1-2.328.36,8.372,8.372,0,0,1-7.248-3.384q-2.448-3.384-2.448-9.816t2.448-9.792a8.394,8.394,0,0,1,7.248-3.36,7.324,7.324,0,0,1,4.344,1.344,5.9,5.9,0,0,1,2.424,3.456h.24V16.48h7.1V52h-7.1Zm-4.656-.96a5.429,5.429,0,0,0,3.336-.984,3.2,3.2,0,0,0,1.32-2.712V35.68a3.2,3.2,0,0,0-1.32-2.712,5.429,5.429,0,0,0-3.336-.984A4.365,4.365,0,0,0,33.288,33.4a5.373,5.373,0,0,0-1.32,3.816v4.368a5.373,5.373,0,0,0,1.32,3.816A4.365,4.365,0,0,0,36.624,46.816ZM74.208,52a4.469,4.469,0,0,1-3.192-1.2,5.518,5.518,0,0,1-1.608-3.216H69.12a5.826,5.826,0,0,1-2.544,3.72,8.75,8.75,0,0,1-4.848,1.272,7.877,7.877,0,0,1-5.808-2.01A7.167,7.167,0,0,1,53.9,45.255a6.617,6.617,0,0,1,2.9-5.909,14.062,14.062,0,0,1,7.9-1.938h3.984V35.824a4.211,4.211,0,0,0-.96-2.9,4.124,4.124,0,0,0-3.216-1.08,5.578,5.578,0,0,0-3.36.912,9.02,9.02,0,0,0-2.064,2.064l-4.224-3.765A11.037,11.037,0,0,1,58.728,27.5a13.159,13.159,0,0,1,6.312-1.279q5.376,0,8.064,2.352t2.688,6.864V46.48h2.352V52Zm-9.84-4.368a5.824,5.824,0,0,0,3.048-.762,2.665,2.665,0,0,0,1.272-2.477V41.44H65.232q-4.176,0-4.176,2.81v.715a2.357,2.357,0,0,0,.864,2.024A4.038,4.038,0,0,0,64.368,47.632Zm34.56.144h-.24a6.282,6.282,0,0,1-.912,1.9,6.56,6.56,0,0,1-1.512,1.536,7,7,0,0,1-2.016,1.008,7.611,7.611,0,0,1-2.328.36,8.372,8.372,0,0,1-7.248-3.384q-2.448-3.384-2.448-9.816t2.448-9.792a8.394,8.394,0,0,1,7.248-3.36,7.324,7.324,0,0,1,4.344,1.344,5.9,5.9,0,0,1,2.424,3.456h.24V16.48h7.1V52h-7.1Zm-4.656-.96a5.429,5.429,0,0,0,3.336-.984,3.2,3.2,0,0,0,1.32-2.712V35.68a3.2,3.2,0,0,0-1.32-2.712,5.429,5.429,0,0,0-3.336-.984A4.365,4.365,0,0,0,90.936,33.4a5.373,5.373,0,0,0-1.32,3.816v4.368a5.373,5.373,0,0,0,1.32,3.816A4.365,4.365,0,0,0,94.272,46.816Zm29.472,5.76a13.3,13.3,0,0,1-5.136-.936A10.6,10.6,0,0,1,114.792,49a11.122,11.122,0,0,1-2.352-4.152,17.722,17.722,0,0,1-.792-5.472,17.825,17.825,0,0,1,.768-5.4,11.48,11.48,0,0,1,2.28-4.152,10.107,10.107,0,0,1,3.72-2.664,12.811,12.811,0,0,1,5.04-.936,12.424,12.424,0,0,1,5.352,1.056,10.1,10.1,0,0,1,3.648,2.832,11.41,11.41,0,0,1,2.064,4.1,18.086,18.086,0,0,1,.648,4.872V41.2H118.992v.381a4.9,4.9,0,0,0,5.568,5.379,6.636,6.636,0,0,0,3.6-.881,14.139,14.139,0,0,0,2.592-2.118l3.552,4.428a11.2,11.2,0,0,1-4.392,3.08A16.2,16.2,0,0,1,123.744,52.576Zm-.144-21.12a4.236,4.236,0,0,0-3.384,1.416,5.561,5.561,0,0,0-1.224,3.768v.384h8.832v-.432a6.171,6.171,0,0,0-1.032-3.72A3.686,3.686,0,0,0,123.6,31.456Z" transform="translate(133.2 39.168)" fill="url(#linear-gradient)"/>
  </g>
</svg>
